<?xml version="1.0" encoding="UTF-8"?>
<svg version="1.1" viewBox="0 0 800 800" width="1280" height="1280" xmlns="http://www.w3.org/2000/svg">
<path transform="translate(0)" d="m0 0h800v800h-800z" fill="#FEFEFE"/>
<path transform="translate(343,493)" d="m0 0h306l9 2 9 6 6 8 3 10v9l-4 10-8 9-9 4-6 1h-308l-11-4-8-7-5-10-1-4v-9l4-11 7-8 10-5z" fill="#222122"/>
<path transform="translate(147,248)" d="m0 0h313l10 4 6 5 6 10 2 7v7l-4 11-7 8-9 5-4 1-13 1h-291l-12-2-10-6-7-9-3-8v-10l4-10 7-8z" fill="#329593"/>
<path transform="translate(269,318)" d="m0 0 13 1 10 6 6 7 4 8 1 4v300l-2 8-4 7-5 5-5 4-7 3-8 1-8-2-8-4-8-9-3-7-1-5v-300l2-9 7-10 9-6z" fill="#329593"/>
<path transform="translate(522,128)" d="m0 0h8l10 3 8 6 5 7 2 5 1 9v287l-1 12-4 9-6 7-12 6h-13l-9-4-8-7-4-7-2-7v-301l3-9 4-6 7-6z" fill="#222021"/>
</svg>
