<svg width="557" height="537" viewBox="0 0 557 537" fill="none" xmlns="http://www.w3.org/2000/svg">
<g filter="url(#filter0_d_540_9816)">
<ellipse cx="278.648" cy="466.867" rx="263.648" ry="34.7667" fill="white"/>
</g>
<g opacity="0.3">
<path d="M489.284 59.7109H382.928V199.389H489.284V59.7109Z" stroke="black" stroke-miterlimit="10"/>
<path d="M469.768 85.3389H402.443V173.759H469.768V85.3389Z" fill="#D9D9D9" stroke="black" stroke-miterlimit="10"/>
</g>
<path d="M358.013 44.0566H76.4268V294.706H358.013V44.0566Z" fill="#263238" stroke="#263238" stroke-miterlimit="10"/>
<path d="M352.675 37.9551H71.0889V288.605H352.675V37.9551Z" fill="white" stroke="#263238" stroke-linecap="round" stroke-linejoin="round"/>
<path d="M297.845 139.105H311.847V125.104H297.845V139.105Z" fill="white" stroke="#263238" stroke-linecap="round" stroke-linejoin="round"/>
<path d="M316.172 139.105H330.174V125.104H316.172V139.105Z" fill="white" stroke="#263238" stroke-linecap="round" stroke-linejoin="round"/>
<path d="M292.248 132.954H221.113" stroke="#263238" stroke-linecap="round" stroke-linejoin="round"/>
<path d="M297.845 172.16H311.847V158.158H297.845V172.16Z" fill="white" stroke="#263238" stroke-linecap="round" stroke-linejoin="round"/>
<path d="M316.172 172.16H330.174V158.158H316.172V172.16Z" fill="white" stroke="#263238" stroke-linecap="round" stroke-linejoin="round"/>
<path d="M292.248 165.995H221.113" stroke="#263238" stroke-linecap="round" stroke-linejoin="round"/>
<path d="M297.845 205.213H311.847V191.211H297.845V205.213Z" fill="white" stroke="#263238" stroke-linecap="round" stroke-linejoin="round"/>
<path d="M316.172 205.213H330.174V191.211H316.172V205.213Z" fill="white" stroke="#263238" stroke-linecap="round" stroke-linejoin="round"/>
<path d="M292.248 199.049H221.113" stroke="#263238" stroke-linecap="round" stroke-linejoin="round"/>
<path d="M163.98 139.105H177.981V125.104H163.98V139.105Z" fill="white" stroke="#263238" stroke-linecap="round" stroke-linejoin="round"/>
<path d="M182.318 139.105H196.32V125.104H182.318V139.105Z" fill="white" stroke="#263238" stroke-linecap="round" stroke-linejoin="round"/>
<path d="M158.384 132.954H87.249" stroke="#263238" stroke-linecap="round" stroke-linejoin="round"/>
<path d="M163.98 172.16H177.981V158.158H163.98V172.16Z" fill="white" stroke="#263238" stroke-linecap="round" stroke-linejoin="round"/>
<path d="M182.318 172.16H196.32V158.158H182.318V172.16Z" fill="white" stroke="#263238" stroke-linecap="round" stroke-linejoin="round"/>
<path d="M158.384 165.995H87.249" stroke="#263238" stroke-linecap="round" stroke-linejoin="round"/>
<path d="M163.98 205.213H177.981V191.211H163.98V205.213Z" fill="white" stroke="#263238" stroke-linecap="round" stroke-linejoin="round"/>
<path d="M182.318 205.213H196.32V191.211H182.318V205.213Z" fill="white" stroke="#263238" stroke-linecap="round" stroke-linejoin="round"/>
<path d="M158.384 199.049H87.249" stroke="#263238" stroke-linecap="round" stroke-linejoin="round"/>
<path d="M107.096 253.352H91.6689V268.778H107.096V253.352Z" fill="white" stroke="#263238" stroke-linecap="round" stroke-linejoin="round"/>
<path d="M170.052 253.352H154.625V268.778H170.052V253.352Z" fill="white" stroke="#263238" stroke-linecap="round" stroke-linejoin="round"/>
<path d="M235.508 253.352H220.081V268.778H235.508V253.352Z" fill="white" stroke="#263238" stroke-linecap="round" stroke-linejoin="round"/>
<path d="M186.914 129.794L189.299 134.585L200.854 123.423" stroke="#263238" stroke-width="2" stroke-linecap="round" stroke-linejoin="round"/>
<path d="M186.914 162.474L189.299 167.255L200.854 156.093" stroke="#263238" stroke-width="2" stroke-linecap="round" stroke-linejoin="round"/>
<path d="M166.985 196.746L169.381 201.526L180.936 190.364" stroke="#263238" stroke-width="2" stroke-linecap="round" stroke-linejoin="round"/>
<path d="M320.004 129.401L322.389 134.182L333.944 123.02" stroke="#263238" stroke-width="2" stroke-linecap="round" stroke-linejoin="round"/>
<path d="M300.715 162.867L303.1 167.648L314.655 156.496" stroke="#263238" stroke-width="2" stroke-linecap="round" stroke-linejoin="round"/>
<path d="M300.715 196.447L303.1 201.228L314.655 190.076" stroke="#263238" stroke-width="2" stroke-linecap="round" stroke-linejoin="round"/>
<path d="M352.675 37.9551H71.0889V77.1107H352.675V37.9551Z" fill="#049F85" stroke="#263238" stroke-linecap="round" stroke-linejoin="round"/>
<path d="M352.674 37.9551H342.069V288.605H352.674V37.9551Z" fill="#DBDBDB" stroke="#263238" stroke-linecap="round" stroke-linejoin="round"/>
<path d="M352.674 75.624H342.069V124.001H352.674V75.624Z" fill="#949494" stroke="#263238" stroke-linecap="round" stroke-linejoin="round"/>
<path d="M352.675 37.9551H71.0889V56.9959H352.675V37.9551Z" fill="#DBDBDB" stroke="#263238" stroke-linecap="round" stroke-linejoin="round"/>
<path d="M196.413 43.501H85.3691V51.4312H196.413V43.501Z" fill="white" stroke="#263238" stroke-linecap="round" stroke-linejoin="round"/>
<path d="M336.05 43.873H345.797" stroke="#263238" stroke-linecap="round" stroke-linejoin="round"/>
<path d="M336.05 47.9922H345.797" stroke="#263238" stroke-linecap="round" stroke-linejoin="round"/>
<path d="M336.05 52.1221H345.797" stroke="#263238" stroke-linecap="round" stroke-linejoin="round"/>
<path d="M169.453 92.9516C169.453 90.5043 170.744 89.1104 173.098 89.1104C175.452 89.1104 176.733 90.5043 176.733 92.9516V100.882C176.733 103.319 175.452 104.713 173.098 104.713C170.744 104.713 169.453 103.319 169.453 100.882V92.9516ZM171.859 101.037C171.859 102.121 172.334 102.534 173.098 102.534C173.862 102.534 174.337 102.121 174.337 101.037V92.776C174.337 91.6815 173.862 91.2684 173.098 91.2684C172.334 91.2684 171.859 91.6815 171.859 92.776V101.037Z" fill="#263238"/>
<path d="M180.42 93.4981V104.536H178.262V89.2852H181.267L183.734 98.4132V89.2852H185.872V104.536H183.404L180.42 93.4981Z" fill="#263238"/>
<path d="M187.586 89.2852H189.992V102.358H193.967V104.536H187.617L187.586 89.2852Z" fill="#263238"/>
<path d="M194.999 89.2852H197.395V104.536H194.999V89.2852Z" fill="#263238"/>
<path d="M201.256 93.4981V104.536H199.129V89.2852H202.134L204.602 98.4132V89.2852H206.729V104.536H204.292L201.256 93.4981Z" fill="#263238"/>
<path d="M210.818 95.7182H214.112V97.8969H210.818V102.358H214.949V104.536H208.423V89.2852H214.959V91.4639H210.829L210.818 95.7182Z" fill="#263238"/>
<path d="M219.13 89.2852H226.534V91.4639H224.024V104.536H221.629V91.4639H219.13V89.2852Z" fill="#263238"/>
<path d="M229.983 95.7182H233.267V97.8969H229.983V102.358H234.113V104.536H227.577V89.2852H234.113V91.4639H229.983V95.7182Z" fill="#263238"/>
<path d="M238.823 89.1104C241.156 89.1104 242.354 90.5043 242.354 92.9516V93.4266H240.093V92.7967C240.093 91.7021 239.659 91.2891 238.895 91.2891C238.131 91.2891 237.697 91.7021 237.697 92.7967C237.697 95.8944 242.375 96.5243 242.375 100.882C242.375 103.319 241.156 104.713 238.802 104.713C236.448 104.713 235.271 103.319 235.271 100.882V99.9422H237.542V101.037C237.542 102.121 238.017 102.513 238.781 102.513C239.545 102.513 240.02 102.121 240.02 101.037C240.02 97.9389 235.343 97.3091 235.343 92.9516C235.271 90.5043 236.499 89.1104 238.823 89.1104Z" fill="#263238"/>
<path d="M243.056 89.2852H250.459V91.4639H247.96V104.536H245.596V91.4639H243.087L243.056 89.2852Z" fill="#263238"/>
<path d="M103.677 249.635H101.251L100.838 246.868H97.936L97.5229 249.635H95.2822L97.7191 234.384H101.23L103.677 249.635ZM98.2044 244.792H100.517L99.3609 237.079L98.2044 244.792Z" fill="#263238"/>
<path d="M165.622 237.864V238.401C165.622 239.97 165.147 240.972 164.073 241.498C165.364 241.994 165.86 243.15 165.86 244.761V246.011C165.86 248.365 164.621 249.625 162.225 249.625H158.456V234.384H162.07C164.559 234.384 165.622 235.54 165.622 237.864ZM160.852 236.532V240.559H161.791C162.679 240.559 163.227 240.166 163.227 238.948V238.101C163.227 237.007 162.855 236.532 162.008 236.532H160.852ZM160.852 242.727V247.415H162.225C163.03 247.415 163.464 247.043 163.464 245.907V244.586C163.464 243.161 163.01 242.727 161.926 242.727H160.852Z" fill="#263238"/>
<path d="M231.696 243.946V246.011C231.696 248.458 230.478 249.852 228.124 249.852C225.769 249.852 224.551 248.458 224.551 246.011V238.081C224.551 235.644 225.769 234.25 228.124 234.25C230.478 234.25 231.696 235.644 231.696 238.081V239.568H229.435V237.864C229.435 236.77 228.95 236.356 228.185 236.356C227.421 236.356 226.946 236.77 226.946 237.864V246.125C226.946 247.219 227.432 247.612 228.185 247.612C228.939 247.612 229.435 247.219 229.435 246.125V243.946H231.696Z" fill="#263238"/>
<path d="M88.333 226.258H271.359" stroke="#263238" stroke-linecap="round" stroke-linejoin="round"/>
<path opacity="0.3" d="M388.95 39.1855H409.157V18.9779L388.95 18.9779V39.1855Z" stroke="black" stroke-linecap="round" stroke-linejoin="round"/>
<path opacity="0.3" d="M415.415 39.1855H435.623V18.9779L415.415 18.9779V39.1855Z" stroke="black" stroke-linecap="round" stroke-linejoin="round"/>
<path opacity="0.3" d="M393.297 26.9706L396.746 33.8683L406.886 22.7061" stroke="black" stroke-width="2" stroke-linecap="round" stroke-linejoin="round"/>
<path opacity="0.3" d="M83.0462 335.661H103.254V315.453H83.0462V335.661Z" stroke="black" stroke-linecap="round" stroke-linejoin="round"/>
<path opacity="0.3" d="M109.5 335.661H129.708V315.453H109.5V335.661Z" stroke="black" stroke-linecap="round" stroke-linejoin="round"/>
<path opacity="0.3" d="M87.373 323.446L90.8219 330.344L100.962 319.182" stroke="black" stroke-width="2" stroke-linecap="round" stroke-linejoin="round"/>
<path opacity="0.3" d="M178.777 335.661H198.984V315.453H178.777V335.661Z" stroke="black" stroke-linecap="round" stroke-linejoin="round"/>
<path opacity="0.3" d="M205.243 335.661H225.45V315.453H205.243V335.661Z" stroke="black" stroke-linecap="round" stroke-linejoin="round"/>
<path opacity="0.3" d="M183.114 323.446L186.563 330.344L196.703 319.182" stroke="black" stroke-width="2" stroke-linecap="round" stroke-linejoin="round"/>
<g opacity="0.3">
<path d="M210.117 29.0851C217.188 27.9424 221.994 21.2838 220.851 14.2129C219.708 7.14187 213.05 2.33606 205.979 3.47878C198.908 4.6215 194.102 11.28 195.245 18.351C196.388 25.422 203.046 30.2278 210.117 29.0851Z" stroke="black" stroke-linecap="round" stroke-linejoin="round"/>
<path d="M211.676 20.9713L208.052 16.2834V8.90039" stroke="black" stroke-linecap="round" stroke-linejoin="round"/>
</g>
<g opacity="0.3">
<path d="M450.13 265.041H448.209L447.879 262.852H445.545L445.215 265.041H443.47L445.411 252.949H448.189L450.13 265.041ZM445.793 261.21H447.621L446.702 255.087L445.793 261.21Z" fill="black"/>
<path d="M477.172 255.727V256.161C477.245 256.643 477.168 257.136 476.949 257.572C476.731 258.008 476.384 258.367 475.954 258.597C476.439 258.818 476.839 259.19 477.094 259.657C477.349 260.125 477.445 260.662 477.369 261.189V262.222C477.416 262.612 477.374 263.007 477.245 263.378C477.116 263.749 476.904 264.085 476.625 264.361C476.346 264.637 476.007 264.846 475.635 264.971C475.262 265.096 474.867 265.134 474.477 265.082H471.493V252.949H474.364C476.326 252.949 477.172 253.858 477.172 255.727ZM473.393 254.694V257.895H474.137C474.839 257.895 475.272 257.586 475.272 256.615V255.944C475.272 255.076 474.983 254.694 474.302 254.694H473.393ZM473.393 259.62V263.337H474.477C475.118 263.337 475.51 263.048 475.51 262.15V261.117C475.51 260.002 475.138 259.651 474.281 259.651L473.393 259.62Z" fill="black"/>
<path d="M504.558 260.58V262.18C504.558 264.122 503.597 265.226 501.728 265.226C499.859 265.226 498.889 264.122 498.889 262.18V255.892C498.889 253.951 499.859 252.846 501.728 252.846C503.597 252.846 504.558 253.951 504.558 255.892V257.069H502.761V255.727C502.761 254.859 502.379 254.539 501.78 254.539C501.181 254.539 500.747 254.859 500.747 255.727V262.263C500.747 263.13 501.129 263.44 501.78 263.44C502.43 263.44 502.761 263.13 502.761 262.263V260.58H504.558Z" fill="black"/>
<path d="M453.909 271.639H439.216V286.332H453.909V271.639Z" stroke="black" stroke-miterlimit="10"/>
<path d="M481.242 271.639H466.549V286.332H481.242V271.639Z" stroke="black" stroke-miterlimit="10"/>
<path d="M508.575 271.639H493.881V286.332H508.575V271.639Z" stroke="black" stroke-miterlimit="10"/>
</g>
<path d="M105.618 441.862H74.5273" stroke="#263238" stroke-miterlimit="10"/>
<path d="M511.311 441.862H115.748" stroke="#263238" stroke-miterlimit="10"/>
<path d="M391.85 441.51L398.5 340.523L403.395 292.508L389.971 277.525L383.239 272.631C383.239 272.631 373.759 280.892 367.037 282.719C360.315 284.547 353.851 286.395 353.851 286.395C353.851 286.395 330.918 329.516 329.069 349.083C327.221 368.651 324.175 441.138 324.175 441.138L326.725 441.51H391.85Z" fill="#9E9E9E" stroke="#222222" stroke-miterlimit="10"/>
<path d="M360.326 358.254C360.326 358.254 359.179 357.665 361.472 351.759" stroke="#222222" stroke-miterlimit="10"/>
<path d="M357.631 285.362C358.771 293.521 359.402 301.742 359.52 309.979C359.52 309.979 366.408 307.222 371.911 297.588C374.952 292.418 377.57 287.01 379.738 281.418L357.631 285.362Z" fill="#263238" stroke="#222222" stroke-miterlimit="10"/>
<path d="M391.851 441.511L397.829 350.716C391.964 353.71 380.389 358.656 367.616 358.873C352.313 359.131 333.365 347.246 333.365 347.246L329.1 348.919C329.1 348.971 329.1 349.032 329.1 349.084C327.262 368.703 324.206 441.139 324.206 441.139L326.757 441.511H391.851Z" fill="white" stroke="#222222" stroke-miterlimit="10"/>
<path d="M387.318 275.569C387.766 275.98 388.342 276.492 389.003 277.043C390.601 278.372 392.728 279.956 394.782 280.893C398.751 282.702 427.524 297.563 440.582 304.454C443.853 306.18 446.099 307.367 447.643 308.331C449.195 309.3 449.958 309.997 450.346 310.711C450.727 311.414 450.784 312.206 450.716 313.496C450.698 313.839 450.672 314.214 450.643 314.627C450.564 315.743 450.466 317.13 450.466 318.87C450.466 321.146 449.6 324.503 448.225 328.597C447.024 332.173 445.453 336.258 443.785 340.594C443.552 341.2 443.317 341.81 443.081 342.425C439.242 352.429 435.098 363.546 434 372.504L434.496 372.565L434 372.504C432.044 388.469 428.27 432.443 427.542 440.99H383.407C383.155 435.238 382.396 413.38 382.396 390.687C382.396 377.493 383.736 362.995 385.13 348.696C385.221 347.773 385.311 346.85 385.401 345.928C386.706 332.593 387.985 319.515 388.179 307.964C388.386 295.63 388.127 287.189 387.817 281.827C387.661 279.146 387.493 277.235 387.363 275.992C387.347 275.841 387.332 275.7 387.318 275.569Z" fill="#049F85" stroke="#222222"/>
<g opacity="0.2">
<mask id="path-79-inside-1_540_9816" fill="white">
<path d="M386.646 274.336C387.184 278.626 387.494 282.941 387.576 287.264V275.214C386.998 274.687 386.646 274.336 386.646 274.336Z"/>
</mask>
<path d="M386.646 274.336C387.184 278.626 387.494 282.941 387.576 287.264V275.214C386.998 274.687 386.646 274.336 386.646 274.336Z" fill="black"/>
<path d="M386.646 274.336L387.354 273.629L385.291 271.567L385.654 274.46L386.646 274.336ZM387.576 287.264L386.576 287.283L388.576 287.264H387.576ZM387.576 275.214H388.576V274.772L388.249 274.474L387.576 275.214ZM385.654 274.46C386.188 278.715 386.495 282.995 386.576 287.283L388.576 287.245C388.494 282.887 388.181 278.536 387.639 274.212L385.654 274.46ZM388.576 287.264V275.214H386.576V287.264H388.576ZM388.249 274.474C387.967 274.218 387.741 274.004 387.587 273.856C387.509 273.782 387.45 273.724 387.411 273.685C387.391 273.666 387.376 273.651 387.366 273.642C387.362 273.637 387.358 273.633 387.356 273.631C387.355 273.63 387.354 273.629 387.354 273.629C387.354 273.629 387.353 273.629 387.353 273.629C387.353 273.629 387.353 273.629 387.353 273.629C387.353 273.629 387.353 273.629 387.354 273.629C387.354 273.629 387.354 273.629 387.354 273.629C387.354 273.629 387.354 273.629 386.646 274.336C385.939 275.043 385.939 275.043 385.939 275.043C385.939 275.043 385.939 275.043 385.939 275.043C385.94 275.043 385.94 275.043 385.94 275.043C385.94 275.043 385.94 275.044 385.94 275.044C385.94 275.044 385.941 275.044 385.941 275.045C385.942 275.046 385.943 275.047 385.945 275.049C385.948 275.052 385.953 275.057 385.959 275.062C385.971 275.074 385.988 275.091 386.01 275.113C386.055 275.156 386.119 275.219 386.202 275.299C386.367 275.458 386.606 275.683 386.902 275.953L388.249 274.474Z" fill="#222222" mask="url(#path-79-inside-1_540_9816)"/>
<mask id="path-81-inside-2_540_9816" fill="white">
<path d="M445.917 333.348V336.446C446.268 335.507 446.619 334.598 446.949 333.699V333.328H447.083C447.218 332.987 447.342 332.636 447.465 332.295H446.949V319.44H450.945C450.945 319.285 450.945 319.119 450.945 318.965C450.945 318.81 450.945 318.593 450.945 318.407H446.949V307.4C446.629 307.203 446.288 307.017 445.917 306.811V318.407H435.074V305.5H443.459L441.518 304.467H435.074V301.06L434.042 300.512V304.436H423.2V294.874L422.167 294.337V304.436H411.325V291.56H416.725L414.722 290.527H411.325V288.782L410.292 288.245V290.527H399.45V282.731C399.089 282.545 398.748 282.37 398.418 282.215V290.527H387.679C387.679 290.868 387.679 291.209 387.679 291.56H398.418V304.467H387.772C387.772 304.808 387.772 305.149 387.772 305.5H398.418V318.407H387.576V313.502C387.369 318.541 386.997 323.828 386.543 329.208V332.306H386.274L386.182 333.338H386.543V346.287H384.994L384.891 347.319H386.595V360.227H383.662L383.569 361.259H386.595V374.166H382.567L382.506 375.199H386.636V388.106H382.062C382.062 388.457 382.062 388.798 382.062 389.139H386.646V402.046H382.092C382.092 402.397 382.092 402.738 382.092 403.079H386.636V415.986H382.299C382.299 416.337 382.299 416.678 382.299 417.019H386.615V441.543H387.648V416.988H398.418V441.512H399.45V416.988H410.292V441.512H411.325V416.988H422.167V441.512H423.2V416.988H430.149C430.149 416.647 430.149 416.306 430.242 415.955H423.2V403.079H431.46C431.46 402.738 431.533 402.397 431.564 402.046H423.2V389.139H432.741C432.741 388.788 432.803 388.457 432.844 388.106H423.2V375.199H434.042V376.572L434.496 372.618C434.641 371.461 434.837 370.263 435.074 369.035V361.259H437.005L437.315 360.227H435.074V347.319H441.786C441.92 346.979 442.044 346.627 442.179 346.287H435.074V333.379L445.917 333.348ZM435.074 319.44H445.917V332.347H435.074V319.44ZM398.418 415.955H387.576V403.079H398.418V415.955ZM398.418 402.015H387.576V389.108H398.418V402.015ZM398.418 388.075H387.576V375.199H398.418V388.075ZM398.418 374.136H387.576V361.228H398.418V374.136ZM398.418 360.196H387.576V347.319H398.418V360.196ZM398.418 346.256H387.576V333.348H398.418V346.256ZM398.418 332.316H387.576V319.44H398.418V332.316ZM410.292 415.955H399.45V403.079H410.292V415.955ZM410.292 402.015H399.45V389.108H410.292V402.015ZM410.292 388.075H399.45V375.199H410.292V388.075ZM410.292 374.136H399.45V361.228H410.292V374.136ZM410.292 360.196H399.45V347.319H410.292V360.196ZM410.292 346.256H399.45V333.348H410.292V346.256ZM410.292 332.316H399.45V319.44H410.292V332.316ZM410.292 318.376H399.45V305.469H410.292V318.376ZM410.292 304.436H399.45V291.56H410.292V304.436ZM422.167 415.955H411.325V403.079H422.167V415.955ZM422.167 402.015H411.325V389.108H422.167V402.015ZM422.167 388.075H411.325V375.199H422.167V388.075ZM422.167 374.136H411.325V361.228H422.167V374.136ZM422.167 360.196H411.325V347.319H422.167V360.196ZM422.167 346.256H411.325V333.348H422.167V346.256ZM422.167 332.316H411.325V319.44H422.167V332.316ZM422.167 318.376H411.325V305.469H422.167V318.376ZM434.042 374.136H423.2V361.228H434.042V374.136ZM434.042 360.196H423.2V347.319H434.042V360.196ZM434.042 346.256H423.2V333.348H434.042V346.256ZM434.042 332.316H423.2V319.44H434.042V332.316ZM434.042 318.376H423.2V305.469H434.042V318.376Z"/>
</mask>
<path d="M445.917 333.348V336.446C446.268 335.507 446.619 334.598 446.949 333.699V333.328H447.083C447.218 332.987 447.342 332.636 447.465 332.295H446.949V319.44H450.945C450.945 319.285 450.945 319.119 450.945 318.965C450.945 318.81 450.945 318.593 450.945 318.407H446.949V307.4C446.629 307.203 446.288 307.017 445.917 306.811V318.407H435.074V305.5H443.459L441.518 304.467H435.074V301.06L434.042 300.512V304.436H423.2V294.874L422.167 294.337V304.436H411.325V291.56H416.725L414.722 290.527H411.325V288.782L410.292 288.245V290.527H399.45V282.731C399.089 282.545 398.748 282.37 398.418 282.215V290.527H387.679C387.679 290.868 387.679 291.209 387.679 291.56H398.418V304.467H387.772C387.772 304.808 387.772 305.149 387.772 305.5H398.418V318.407H387.576V313.502C387.369 318.541 386.997 323.828 386.543 329.208V332.306H386.274L386.182 333.338H386.543V346.287H384.994L384.891 347.319H386.595V360.227H383.662L383.569 361.259H386.595V374.166H382.567L382.506 375.199H386.636V388.106H382.062C382.062 388.457 382.062 388.798 382.062 389.139H386.646V402.046H382.092C382.092 402.397 382.092 402.738 382.092 403.079H386.636V415.986H382.299C382.299 416.337 382.299 416.678 382.299 417.019H386.615V441.543H387.648V416.988H398.418V441.512H399.45V416.988H410.292V441.512H411.325V416.988H422.167V441.512H423.2V416.988H430.149C430.149 416.647 430.149 416.306 430.242 415.955H423.2V403.079H431.46C431.46 402.738 431.533 402.397 431.564 402.046H423.2V389.139H432.741C432.741 388.788 432.803 388.457 432.844 388.106H423.2V375.199H434.042V376.572L434.496 372.618C434.641 371.461 434.837 370.263 435.074 369.035V361.259H437.005L437.315 360.227H435.074V347.319H441.786C441.92 346.979 442.044 346.627 442.179 346.287H435.074V333.379L445.917 333.348ZM435.074 319.44H445.917V332.347H435.074V319.44ZM398.418 415.955H387.576V403.079H398.418V415.955ZM398.418 402.015H387.576V389.108H398.418V402.015ZM398.418 388.075H387.576V375.199H398.418V388.075ZM398.418 374.136H387.576V361.228H398.418V374.136ZM398.418 360.196H387.576V347.319H398.418V360.196ZM398.418 346.256H387.576V333.348H398.418V346.256ZM398.418 332.316H387.576V319.44H398.418V332.316ZM410.292 415.955H399.45V403.079H410.292V415.955ZM410.292 402.015H399.45V389.108H410.292V402.015ZM410.292 388.075H399.45V375.199H410.292V388.075ZM410.292 374.136H399.45V361.228H410.292V374.136ZM410.292 360.196H399.45V347.319H410.292V360.196ZM410.292 346.256H399.45V333.348H410.292V346.256ZM410.292 332.316H399.45V319.44H410.292V332.316ZM410.292 318.376H399.45V305.469H410.292V318.376ZM410.292 304.436H399.45V291.56H410.292V304.436ZM422.167 415.955H411.325V403.079H422.167V415.955ZM422.167 402.015H411.325V389.108H422.167V402.015ZM422.167 388.075H411.325V375.199H422.167V388.075ZM422.167 374.136H411.325V361.228H422.167V374.136ZM422.167 360.196H411.325V347.319H422.167V360.196ZM422.167 346.256H411.325V333.348H422.167V346.256ZM422.167 332.316H411.325V319.44H422.167V332.316ZM422.167 318.376H411.325V305.469H422.167V318.376ZM434.042 374.136H423.2V361.228H434.042V374.136ZM434.042 360.196H423.2V347.319H434.042V360.196ZM434.042 346.256H423.2V333.348H434.042V346.256ZM434.042 332.316H423.2V319.44H434.042V332.316ZM434.042 318.376H423.2V305.469H434.042V318.376Z" fill="black" stroke="#222222" stroke-width="2" mask="url(#path-81-inside-2_540_9816)"/>
</g>
<path d="M381.896 390.687C381.896 414.075 382.702 436.575 382.929 441.49H428.001C428.621 434.2 432.503 388.828 434.496 372.565C436.675 354.794 450.966 328.339 450.966 318.87C450.966 309.402 453.868 310.899 440.816 304.012C427.764 297.124 398.975 282.255 394.99 280.438C391.004 278.62 386.646 274.242 386.646 274.242C386.646 274.242 388.092 283.308 387.679 307.956C387.266 332.604 381.896 364.242 381.896 390.687Z" stroke="#222222" stroke-miterlimit="10"/>
<path d="M386.646 274.335C386.646 274.335 388.092 283.401 387.679 308.049C387.596 314.244 387.173 320.935 386.646 327.833C387.886 326.129 391.882 320.688 392.842 320.378C393.926 320.016 399.729 325.458 404.438 326.181C409.146 326.904 410.964 326.904 405.894 321.462C400.824 316.02 398.666 300.077 396.828 288.11C396.478 285.548 395.915 283.019 395.145 280.551H395.021C390.994 278.692 386.646 274.335 386.646 274.335Z" fill="#263238" stroke="#222222" stroke-miterlimit="10"/>
<path d="M416.394 386.473C419.729 384.955 422.352 383.644 422.352 383.644L423.581 393.123C423.581 393.123 405.531 401.074 395.443 401.683C385.355 402.292 384.436 402.602 384.436 402.602L384.735 393.432" stroke="#222222" stroke-miterlimit="10"/>
<path d="M407.359 390.181C409.208 389.561 411.376 388.684 413.493 387.765" stroke="#222222" stroke-miterlimit="10"/>
<path d="M388.092 392.514C393.37 392.38 398.634 391.901 403.849 391.079" stroke="#222222" stroke-miterlimit="10"/>
<path d="M423.581 393.122L424.19 400.464" stroke="#222222" stroke-miterlimit="10"/>
<path d="M272.959 415.438C273.446 415.554 273.446 415.554 273.446 415.554L273.446 415.551L273.449 415.541L273.458 415.503L273.494 415.35L273.637 414.751C273.762 414.227 273.946 413.456 274.18 412.472C274.648 410.503 275.317 407.68 276.124 404.259C277.738 397.418 279.9 388.188 282.094 378.635C284.289 369.083 286.516 359.206 288.259 351.071C289.999 342.951 291.265 336.529 291.527 333.914C291.786 331.322 291.948 328.829 292.085 326.512C292.111 326.078 292.136 325.649 292.16 325.228C292.266 323.4 292.365 321.7 292.496 320.16C292.656 318.263 292.864 316.632 293.185 315.324C293.509 314.005 293.933 313.081 294.481 312.533C294.595 312.419 294.866 312.222 295.324 311.942C295.77 311.671 296.355 311.342 297.065 310.963C298.484 310.205 300.381 309.257 302.606 308.176C306.947 306.069 312.517 303.47 318.182 300.826L318.604 300.629C324.412 297.919 330.288 295.174 335.004 292.881C337.361 291.735 339.433 290.699 341.062 289.836C342.678 288.98 343.894 288.275 344.515 287.792C346.776 286.034 349.408 284.909 351.772 284.536C354.157 284.159 356.152 284.561 357.278 285.686C358.382 286.79 358.461 288.642 358.178 290.381C358.04 291.228 357.824 292.001 357.641 292.563C357.549 292.844 357.467 293.07 357.408 293.226C357.378 293.303 357.355 293.363 357.339 293.403L357.321 293.447L357.318 293.453L357.316 293.457L357.316 293.459L357.315 293.46L357.315 293.46L272.959 415.438ZM272.959 415.438L273.446 415.554L273.373 415.858L273.068 415.926L273.067 415.926L273.065 415.927L273.055 415.929L273.017 415.938C272.984 415.945 272.934 415.957 272.87 415.971C272.741 416.001 272.556 416.045 272.328 416.101C271.873 416.213 271.25 416.373 270.58 416.564C269.909 416.756 269.196 416.978 268.559 417.214C267.913 417.453 267.378 417.695 267.041 417.919C266.441 418.319 266.087 419.175 265.897 420.06C265.806 420.485 265.76 420.882 265.737 421.173C265.735 421.206 265.733 421.238 265.731 421.268M272.959 415.438L265.731 421.268M265.731 421.268C265.75 421.274 265.771 421.281 265.792 421.288C266.093 421.389 266.554 421.553 267.208 421.815C268.514 422.337 270.592 423.247 273.699 424.8C275.209 425.555 276.657 426.868 277.983 428.404C279.314 429.946 280.546 431.741 281.618 433.494C283.574 436.693 285.016 439.784 285.563 441.011H335.471L265.731 421.268Z" fill="#049F85" stroke="#222222"/>
<g opacity="0.2">
<mask id="path-89-inside-3_540_9816" fill="white">
<path d="M350.919 305.467V310.744C351.27 309.794 351.611 308.875 351.952 307.987V305.467H352.923L353.325 304.435H351.952V291.558H358.457C358.53 291.238 358.612 290.887 358.664 290.526H351.952V284.041C351.611 284.093 351.27 284.144 350.919 284.227V290.526H340.077V289.823L339.045 290.35V290.526H338.694L336.628 291.558H339.045V304.466H328.203V295.585L327.17 296.071V304.435H316.328V301.141L315.295 301.626V304.435H309.296L307.107 305.467H315.295V318.405H304.453V306.737L303.42 307.233V318.405H292.578V315.803C291.998 319.564 291.653 323.358 291.546 327.162V332.325H291.174L291.081 333.357H291.546V346.285H288.768L288.551 347.318H291.546V360.225H285.753C285.681 360.566 285.598 360.917 285.526 361.258H291.546V374.165H282.614C282.531 374.516 282.459 374.857 282.376 375.198H291.546V388.105H280.704V382.426L279.671 386.886V388.053H279.403L279.165 389.086H279.671V402.045H276.14L275.892 403.077H279.671V415.985H270.904C269.852 416.266 268.818 416.611 267.807 417.017V422.635C268.116 422.758 268.457 422.903 268.839 423.079V417.017H279.671V431.473C280.032 431.99 280.373 432.506 280.704 433.033V417.028H291.546V441.551H292.578V416.986H303.42V441.51H304.453V416.986H315.295V441.51H316.328V416.986H327.17V441.51H328.203V416.986H336.68V415.954H328.203V403.077H337.114V402.045H328.203V389.137H337.558V388.105H328.203V375.198H338.022C338.022 374.857 338.022 374.506 338.022 374.165H328.203V361.258H338.528C338.528 360.917 338.528 360.576 338.58 360.225H328.203V347.318H339.045V354.949C339.313 352.749 339.654 350.488 340.077 348.195V347.318H340.242C340.304 346.977 340.377 346.636 340.439 346.285H340.077V333.378H343.536C343.629 333.037 343.733 332.696 343.826 332.345H340.077V319.438H347.822C347.946 319.097 348.059 318.746 348.173 318.405H340.077V305.498L350.919 305.467ZM340.077 291.558H350.919V304.466H340.077V291.558ZM291.546 415.985H280.704V403.077H291.546V415.985ZM291.546 402.045H280.704V389.137H291.546V402.045ZM303.42 415.985H292.578V403.077H303.42V415.985ZM303.42 402.045H292.578V389.137H303.42V402.045ZM303.42 388.105H292.578V375.198H303.42V388.105ZM303.42 374.165H292.578V361.258H303.42V374.165ZM303.42 360.225H292.578V347.318H303.42V360.225ZM303.42 346.285H292.578V333.378H303.42V346.285ZM303.42 332.345H292.578V319.438H303.42V332.345ZM315.295 415.985H304.453V403.077H315.295V415.985ZM315.295 402.045H304.453V389.137H315.295V402.045ZM315.295 388.105H304.453V375.198H315.295V388.105ZM315.295 374.165H304.453V361.258H315.295V374.165ZM315.295 360.225H304.453V347.318H315.295V360.225ZM315.295 346.285H304.453V333.378H315.295V346.285ZM315.295 332.345H304.453V319.438H315.295V332.345ZM327.17 415.985H316.328V403.077H327.17V415.985ZM327.17 402.045H316.328V389.137H327.17V402.045ZM327.17 388.105H316.328V375.198H327.17V388.105ZM327.17 374.165H316.328V361.258H327.17V374.165ZM327.17 360.225H316.328V347.318H327.17V360.225ZM327.17 346.285H316.328V333.378H327.17V346.285ZM327.17 332.345H316.328V319.438H327.17V332.345ZM327.17 318.405H316.328V305.498H327.17V318.405ZM339.045 346.285H328.203V333.378H339.045V346.285ZM339.045 332.345H328.203V319.438H339.045V332.345ZM339.045 318.405H328.203V305.498H339.045V318.405Z"/>
</mask>
<path d="M350.919 305.467V310.744C351.27 309.794 351.611 308.875 351.952 307.987V305.467H352.923L353.325 304.435H351.952V291.558H358.457C358.53 291.238 358.612 290.887 358.664 290.526H351.952V284.041C351.611 284.093 351.27 284.144 350.919 284.227V290.526H340.077V289.823L339.045 290.35V290.526H338.694L336.628 291.558H339.045V304.466H328.203V295.585L327.17 296.071V304.435H316.328V301.141L315.295 301.626V304.435H309.296L307.107 305.467H315.295V318.405H304.453V306.737L303.42 307.233V318.405H292.578V315.803C291.998 319.564 291.653 323.358 291.546 327.162V332.325H291.174L291.081 333.357H291.546V346.285H288.768L288.551 347.318H291.546V360.225H285.753C285.681 360.566 285.598 360.917 285.526 361.258H291.546V374.165H282.614C282.531 374.516 282.459 374.857 282.376 375.198H291.546V388.105H280.704V382.426L279.671 386.886V388.053H279.403L279.165 389.086H279.671V402.045H276.14L275.892 403.077H279.671V415.985H270.904C269.852 416.266 268.818 416.611 267.807 417.017V422.635C268.116 422.758 268.457 422.903 268.839 423.079V417.017H279.671V431.473C280.032 431.99 280.373 432.506 280.704 433.033V417.028H291.546V441.551H292.578V416.986H303.42V441.51H304.453V416.986H315.295V441.51H316.328V416.986H327.17V441.51H328.203V416.986H336.68V415.954H328.203V403.077H337.114V402.045H328.203V389.137H337.558V388.105H328.203V375.198H338.022C338.022 374.857 338.022 374.506 338.022 374.165H328.203V361.258H338.528C338.528 360.917 338.528 360.576 338.58 360.225H328.203V347.318H339.045V354.949C339.313 352.749 339.654 350.488 340.077 348.195V347.318H340.242C340.304 346.977 340.377 346.636 340.439 346.285H340.077V333.378H343.536C343.629 333.037 343.733 332.696 343.826 332.345H340.077V319.438H347.822C347.946 319.097 348.059 318.746 348.173 318.405H340.077V305.498L350.919 305.467ZM340.077 291.558H350.919V304.466H340.077V291.558ZM291.546 415.985H280.704V403.077H291.546V415.985ZM291.546 402.045H280.704V389.137H291.546V402.045ZM303.42 415.985H292.578V403.077H303.42V415.985ZM303.42 402.045H292.578V389.137H303.42V402.045ZM303.42 388.105H292.578V375.198H303.42V388.105ZM303.42 374.165H292.578V361.258H303.42V374.165ZM303.42 360.225H292.578V347.318H303.42V360.225ZM303.42 346.285H292.578V333.378H303.42V346.285ZM303.42 332.345H292.578V319.438H303.42V332.345ZM315.295 415.985H304.453V403.077H315.295V415.985ZM315.295 402.045H304.453V389.137H315.295V402.045ZM315.295 388.105H304.453V375.198H315.295V388.105ZM315.295 374.165H304.453V361.258H315.295V374.165ZM315.295 360.225H304.453V347.318H315.295V360.225ZM315.295 346.285H304.453V333.378H315.295V346.285ZM315.295 332.345H304.453V319.438H315.295V332.345ZM327.17 415.985H316.328V403.077H327.17V415.985ZM327.17 402.045H316.328V389.137H327.17V402.045ZM327.17 388.105H316.328V375.198H327.17V388.105ZM327.17 374.165H316.328V361.258H327.17V374.165ZM327.17 360.225H316.328V347.318H327.17V360.225ZM327.17 346.285H316.328V333.378H327.17V346.285ZM327.17 332.345H316.328V319.438H327.17V332.345ZM327.17 318.405H316.328V305.498H327.17V318.405ZM339.045 346.285H328.203V333.378H339.045V346.285ZM339.045 332.345H328.203V319.438H339.045V332.345ZM339.045 318.405H328.203V305.498H339.045V318.405Z" fill="black" stroke="#222222" stroke-width="2" mask="url(#path-89-inside-3_540_9816)"/>
</g>
<path d="M285.237 441.511H335.957C336.071 437.535 337.537 387.011 338.528 361.227C339.561 334.38 357.776 293.655 357.776 293.655C357.776 293.655 360.213 287.914 357.631 285.332C355.05 282.751 348.854 283.784 344.208 287.398C339.561 291.012 296.709 309.598 294.127 312.18C291.546 314.761 292.062 323.538 291.029 333.864C289.997 344.19 272.959 415.438 272.959 415.438C272.959 415.438 268.313 416.471 266.764 417.503C265.215 418.536 265.215 421.634 265.215 421.634C265.215 421.634 267.28 422.15 273.476 425.248C279.175 428.098 284.431 439.663 285.237 441.511Z" stroke="#222222" stroke-miterlimit="10"/>
<path d="M265.215 421.664C265.215 421.664 267.28 422.18 273.476 425.278C279.671 428.376 285.35 441.799 285.35 441.799H295.356C295.986 439.92 297.524 433.084 290.513 424.762C282.252 414.952 272.959 415.469 272.959 415.469C272.959 415.469 268.313 416.501 266.764 417.534C265.215 418.566 265.215 421.664 265.215 421.664Z" fill="#263238" stroke="#222222" stroke-miterlimit="10"/>
<path d="M351.395 284.103C349.175 289.978 343.919 303.268 339.562 309.597C333.882 317.858 323.556 324.57 327.171 327.668C330.785 330.765 341.11 320.956 341.11 320.956C341.11 320.956 343.692 328.184 344.208 330.249C344.236 330.343 344.282 330.43 344.342 330.507C348.07 317.963 352.552 305.657 357.766 293.654C357.766 293.654 360.203 287.913 357.621 285.332C356.289 283.989 354.018 283.638 351.395 284.103Z" fill="#263238" stroke="#222222" stroke-miterlimit="10"/>
<path d="M313.684 333.945C313.98 332.037 314.173 330.113 314.262 328.184" stroke="#222222" stroke-miterlimit="10"/>
<path d="M305.484 442.801C305.484 442.801 307.033 409.759 307.033 390.656C307.033 376.891 310.782 353.741 312.888 339.563" stroke="#222222" stroke-miterlimit="10"/>
<path d="M308.066 383.458C308.066 383.458 316.326 386.039 320.457 386.556L332.848 388.105L331.908 399.804C331.908 399.804 331.299 399.463 322.006 396.365C312.712 393.268 307.033 390.686 307.033 390.686" stroke="#222222" stroke-miterlimit="10"/>
<path d="M331.908 399.772C331.908 399.772 331.299 422.696 331.299 425.794C331.299 428.891 322.006 426.826 322.006 426.826" stroke="#222222" stroke-miterlimit="10"/>
<path d="M339.323 273.2C339.323 273.2 349.06 287.202 357.775 293.655C366.49 300.109 373.924 291.074 379.738 281.388C385.551 271.703 389.424 264.598 392.325 256.203C395.227 247.809 392.325 233.931 380.709 222.954C369.092 211.978 341.956 195.828 335.182 204.223C328.408 212.618 321.944 231.07 326.457 246.838C329.152 256.317 333.508 265.243 339.323 273.2Z" fill="#9E9E9E" stroke="#222222" stroke-miterlimit="10"/>
<path d="M335.224 243.079C338.898 241.978 342.815 241.978 346.489 243.079" stroke="#222222" stroke-width="2" stroke-miterlimit="10" stroke-linecap="round"/>
<path d="M343.064 251.811L343.064 251.812C343.209 252.592 343.184 253.302 343.048 253.812C342.902 254.363 342.685 254.505 342.589 254.523C342.493 254.54 342.242 254.484 341.912 254.021C341.606 253.592 341.332 252.934 341.188 252.147C341.043 251.361 341.068 250.65 341.203 250.142C341.35 249.594 341.566 249.453 341.663 249.435C341.759 249.418 342.01 249.473 342.339 249.937C342.645 250.366 342.919 251.024 343.064 251.811Z" fill="#263238" stroke="#222222"/>
<path d="M371.791 252.253C371.93 253.034 371.903 253.731 371.768 254.235C371.624 254.77 371.405 254.943 371.284 254.973C371.217 254.99 370.982 254.965 370.644 254.486C370.336 254.049 370.059 253.378 369.914 252.59C369.769 251.804 369.794 251.094 369.93 250.585C370.076 250.038 370.292 249.896 370.389 249.878C370.486 249.861 370.736 249.917 371.066 250.38C371.372 250.809 371.646 251.467 371.791 252.253Z" fill="#263238" stroke="#222222"/>
<path d="M351.001 274.933C354.732 276.219 358.678 276.766 362.618 276.544C369.402 276.224 375.215 271.381 375.215 271.381" stroke="#222222" stroke-miterlimit="10"/>
<path d="M336.184 211.358C336.184 211.358 350.527 244.07 352.323 244.968C354.12 245.867 357.703 235.107 357.703 235.107C357.703 235.107 362.628 244.06 368.473 246.755C374.317 249.45 376.093 244.968 376.093 244.968C379.021 246.617 381.865 248.413 384.612 250.348L386.853 252.134L389.094 260.199C389.094 260.199 382.371 282.162 384.612 284.857C386.853 287.552 399.399 283.959 399.399 283.959C399.399 283.959 396.301 288.44 400.297 288.44C404.293 288.44 411.501 289.338 421.806 275.44C432.111 261.541 433.009 239.144 433.009 239.144C433.009 239.144 437.935 244.514 438.389 237.792C438.844 231.07 432.565 219.866 432.565 219.866C432.565 219.866 442.416 229.727 441.528 219.422C440.64 209.117 434.806 197.459 432.565 194.774C430.325 192.09 416.87 184.448 416.87 184.448C416.87 184.448 422.25 183.55 418.223 177.272C414.196 170.994 399.399 169.208 394.019 169.208C388.639 169.208 377.436 171.004 377.436 171.004C377.436 171.004 384.612 157.106 376.992 156.207C369.371 155.309 355.927 170.106 355.927 170.106C355.927 170.106 342.503 159.346 338.445 161.587C334.387 163.828 337.103 166.967 337.103 166.967C337.103 166.967 319.632 168.309 314.696 175.93C309.76 183.55 315.594 188.032 315.594 188.032C315.594 188.032 284.224 209.54 289.15 217.605C294.075 225.669 303.048 218.059 303.048 218.059C303.048 218.059 290.492 250.327 292.289 252.568C294.086 254.809 302.615 251.67 302.615 251.67C302.615 251.67 302.171 277.66 308.893 280.355C315.615 283.05 316.957 278.114 316.957 278.114C316.957 278.114 320.54 281.697 328.615 282.141C336.69 282.585 339.364 273.178 339.364 273.178C339.364 273.178 330.402 252.114 330.856 234.642C331.31 217.171 336.184 211.358 336.184 211.358Z" fill="#263238" stroke="#222222" stroke-miterlimit="10"/>
<path d="M354.233 249.098C354.233 249.098 351.001 265.887 353.583 269.44C356.164 272.992 365.21 269.44 365.85 267.509" fill="#9E9E9E"/>
<path d="M354.233 249.098C354.233 249.098 351.001 265.887 353.583 269.44C356.164 272.992 365.21 269.44 365.85 267.509" stroke="#222222" stroke-miterlimit="10"/>
<path d="M340.831 259.435C347.874 259.435 353.583 255.242 353.583 250.07C353.583 244.897 347.874 240.704 340.831 240.704C333.788 240.704 328.078 244.897 328.078 250.07C328.078 255.242 333.788 259.435 340.831 259.435Z" stroke="#222222" stroke-miterlimit="10"/>
<path d="M371.499 258.793C378.541 258.793 384.251 254.6 384.251 249.427C384.251 244.255 378.541 240.062 371.499 240.062C364.456 240.062 358.746 244.255 358.746 249.427C358.746 254.6 364.456 258.793 371.499 258.793Z" stroke="#222222" stroke-miterlimit="10"/>
<path d="M354.233 249.098C354.233 249.098 356.815 247.167 358.746 249.429" stroke="#222222" stroke-miterlimit="10"/>
<path d="M247.98 427.767C247.98 427.767 264.192 423.193 269.179 422.367C274.167 421.541 284.152 430.679 285.814 435.667C287.477 440.654 285.35 441.769 285.35 441.769L252.131 440.664L247.98 427.767Z" fill="#9E9E9E" stroke="#222222" stroke-miterlimit="10"/>
<path d="M253.856 426.156C253.856 426.156 266.092 430.741 269.149 432.579C272.205 434.417 271.286 438.082 269.458 439.91C267.254 441.753 264.624 443.017 261.807 443.586C258.956 443.748 256.098 443.748 253.247 443.586C249.581 443.276 246.215 443.896 243.158 443.896C240.102 443.896 230.922 442.977 230.922 442.977L228.165 441.139C228.165 441.139 223.002 442.667 218.996 444.237C214.99 445.806 216.239 442.399 219.295 439.951C222.352 437.504 230.003 431.391 231.232 430.782C232.461 430.173 248.053 425.619 248.053 425.619L253.856 426.156Z" fill="#9E9E9E" stroke="#222222" stroke-miterlimit="10"/>
<path d="M258.44 427.375C258.44 427.375 250.479 423.709 248.342 423.709C246.204 423.709 230.912 428.872 228.774 430.431C226.637 431.99 224.489 446.643 226.017 447.562C227.545 448.481 228.774 445.724 229.115 443.896C229.456 442.068 233.71 432.269 233.71 432.269L230.612 447.871C230.612 447.871 231.841 450.308 233.059 448.171C234.278 446.033 241.929 431.35 242.539 430.431C243.34 429.579 244.27 428.857 245.296 428.294C245.296 428.294 243.767 435.026 242.539 441.449C241.31 447.871 242.239 449.709 244.077 450.009C245.915 450.308 246.824 446.033 247.743 443.896C248.662 441.759 252.637 429.512 252.637 429.512" fill="#9E9E9E"/>
<path d="M258.44 427.375C258.44 427.375 250.479 423.709 248.342 423.709C246.204 423.709 230.912 428.872 228.774 430.431C226.637 431.99 224.489 446.643 226.017 447.562C227.545 448.481 228.774 445.724 229.115 443.896C229.456 442.068 233.71 432.269 233.71 432.269L230.612 447.871C230.612 447.871 231.841 450.308 233.059 448.171C234.278 446.033 241.929 431.35 242.539 430.431C243.34 429.579 244.27 428.857 245.296 428.294C245.296 428.294 243.767 435.026 242.539 441.449C241.31 447.871 242.239 449.709 244.077 450.009C245.915 450.308 246.824 446.033 247.743 443.896C248.662 441.759 252.637 429.512 252.637 429.512" stroke="#222222" stroke-miterlimit="10"/>
<path d="M267.28 433.497C267.28 433.497 258.111 442.977 256.882 445.114C255.653 447.251 255.663 447.561 259.03 447.561C262.396 447.561 272.794 440.829 273.703 439.91C274.611 438.991 274.322 436.244 272.174 434.406C271.49 433.875 270.689 433.515 269.838 433.357C268.986 433.199 268.109 433.247 267.28 433.497Z" fill="#9E9E9E" stroke="#222222" stroke-miterlimit="10"/>
<path d="M324.546 432.444C324.546 432.444 312.31 436.399 309.305 438.64C306.3 440.881 301.963 443.348 302.903 444.102C303.843 444.856 306.858 444.102 307.798 443.348C308.737 442.595 313.064 441.841 313.064 441.841C313.064 441.841 318.144 438.826 322.099 436.389C326.054 433.952 329.058 431.308 324.546 432.444Z" fill="#9E9E9E" stroke="#222222" stroke-miterlimit="10"/>
<path d="M392.088 411.729C392.088 411.729 358.013 417.925 345.684 422.252C333.355 426.578 328.45 429.593 322.286 433.951C316.121 438.308 303.627 446.538 305.485 447.984C307.344 449.429 313.818 444.359 314.913 443.275C316.007 442.191 323.969 438.928 323.969 438.928L329.297 436.202C329.297 436.202 321.274 446.084 318.382 448.593C315.491 451.102 317.443 452.671 319.621 451.949C321.8 451.226 325.91 446.899 325.91 446.899L339.158 438.184C339.158 438.184 333.716 445.805 331.176 447.973C328.636 450.142 334.078 451.969 335.172 450.152C336.267 448.335 341.698 443.626 341.698 443.626C341.698 443.626 350.754 438.917 352.933 437.1C355.111 435.283 360.543 430.213 360.543 430.213L401.144 433.476C401.144 433.476 403.684 432.03 402.239 423.687C400.793 415.344 392.088 411.729 392.088 411.729Z" fill="#9E9E9E" stroke="#222222" stroke-miterlimit="10"/>
<mask id="path-115-inside-4_540_9816" fill="white">
<path d="M419.637 347.564L439.576 396.88L407.308 408.115L416.374 434.58C416.374 434.58 439.545 434.642 457.677 433.547C475.809 432.453 488.531 421.518 485.629 408.476C482.728 395.435 471.854 376.569 463.15 354.09C454.445 331.611 457.14 318.208 453.154 311.32C449.169 304.433 437.924 302.616 437.924 302.616L431.728 301.583"/>
</mask>
<path d="M419.637 347.564L439.576 396.88L407.308 408.115L416.374 434.58C416.374 434.58 439.545 434.642 457.677 433.547C475.809 432.453 488.531 421.518 485.629 408.476C482.728 395.435 471.854 376.569 463.15 354.09C454.445 331.611 457.14 318.208 453.154 311.32C449.169 304.433 437.924 302.616 437.924 302.616L431.728 301.583" fill="#049F85"/>
<path d="M439.576 396.88L439.905 397.825L440.897 397.479L440.503 396.505L439.576 396.88ZM407.308 408.115L406.979 407.17L406.039 407.498L406.362 408.439L407.308 408.115ZM416.374 434.58L415.428 434.904L415.659 435.578L416.371 435.58L416.374 434.58ZM437.924 302.616L437.759 303.602L437.764 303.603L437.924 302.616ZM418.71 347.939L438.649 397.255L440.503 396.505L420.564 347.189L418.71 347.939ZM439.247 395.936L406.979 407.17L407.636 409.059L439.905 397.825L439.247 395.936ZM406.362 408.439L415.428 434.904L417.32 434.256L408.254 407.791L406.362 408.439ZM416.374 434.58C416.371 435.58 416.371 435.58 416.371 435.58C416.372 435.58 416.372 435.58 416.372 435.58C416.373 435.58 416.374 435.58 416.375 435.58C416.378 435.58 416.383 435.58 416.388 435.58C416.4 435.58 416.417 435.58 416.439 435.58C416.484 435.58 416.55 435.58 416.637 435.58C416.812 435.581 417.07 435.581 417.405 435.58C418.076 435.58 419.053 435.578 420.282 435.572C422.741 435.561 426.207 435.535 430.241 435.474C438.306 435.353 448.649 435.094 457.737 434.546L457.617 432.549C448.573 433.095 438.265 433.353 430.211 433.474C426.185 433.535 422.726 433.561 420.273 433.573C419.047 433.578 418.072 433.58 417.404 433.58C417.07 433.581 416.813 433.581 416.639 433.58C416.553 433.58 416.487 433.58 416.443 433.58C416.421 433.58 416.404 433.58 416.393 433.58C416.387 433.58 416.383 433.58 416.38 433.58C416.379 433.58 416.378 433.58 416.377 433.58C416.377 433.58 416.377 433.58 416.377 433.58C416.376 433.58 416.376 433.58 416.374 434.58ZM457.737 434.546C466.976 433.988 474.917 430.92 480.204 426.241C485.51 421.543 488.149 415.196 486.605 408.259L484.653 408.693C486.011 414.798 483.74 420.439 478.878 424.743C473.996 429.065 466.511 432.012 457.617 432.549L457.737 434.546ZM486.605 408.259C485.128 401.618 481.636 393.546 477.476 384.408C473.299 375.234 468.421 364.934 464.082 353.729L462.217 354.451C466.583 365.725 471.494 376.097 475.656 385.237C479.833 394.412 483.229 402.292 484.653 408.693L486.605 408.259ZM464.082 353.729C459.77 342.592 458.281 333.708 457.374 326.729C456.923 323.259 456.607 320.18 456.159 317.578C455.709 314.966 455.106 312.696 454.02 310.819L452.289 311.821C453.196 313.388 453.75 315.377 454.188 317.917C454.627 320.467 454.929 323.435 455.391 326.987C456.309 334.052 457.825 343.109 462.217 354.451L464.082 353.729ZM454.02 310.819C451.855 307.079 447.786 304.796 444.414 303.456C442.707 302.778 441.133 302.323 439.985 302.037C439.41 301.894 438.94 301.792 438.611 301.727C438.447 301.694 438.318 301.67 438.228 301.653C438.183 301.645 438.149 301.639 438.124 301.635C438.112 301.633 438.103 301.632 438.096 301.63C438.092 301.63 438.09 301.629 438.087 301.629C438.086 301.629 438.086 301.629 438.085 301.629C438.085 301.629 438.084 301.629 438.084 301.629C438.084 301.628 438.083 301.628 437.924 302.616C437.764 303.603 437.764 303.603 437.764 303.603C437.764 303.603 437.764 303.603 437.764 303.603C437.764 303.603 437.764 303.603 437.764 303.603C437.765 303.603 437.766 303.603 437.768 303.603C437.772 303.604 437.779 303.605 437.788 303.607C437.807 303.61 437.835 303.615 437.874 303.622C437.951 303.636 438.067 303.657 438.218 303.688C438.52 303.748 438.96 303.843 439.501 303.978C440.586 304.248 442.072 304.677 443.675 305.314C446.922 306.605 450.468 308.675 452.289 311.821L454.02 310.819ZM438.088 301.629L431.893 300.597L431.564 302.569L437.759 303.602L438.088 301.629Z" fill="#222222" mask="url(#path-115-inside-4_540_9816)"/>
<g opacity="0.2">
<mask id="path-117-inside-5_540_9816" fill="white">
<path d="M482.573 422.19V417.027H485.268C485.381 416.687 485.474 416.346 485.557 415.995H482.573V403.077H484.121C484.008 402.747 483.884 402.396 483.77 402.045H482.573V398.895C482.242 398.038 481.901 397.161 481.54 396.283V402.045H470.698V389.137H478.484C478.329 388.797 478.184 388.456 478.029 388.105H470.698V375.197H472.143C471.978 374.857 471.823 374.516 471.668 374.165H470.698V372.007C470.357 371.243 470.006 370.479 469.665 369.704V374.165H458.823V361.258H466.051C465.907 360.917 465.762 360.576 465.628 360.225H458.823V347.318H460.754C460.64 346.977 460.537 346.626 460.434 346.285H458.823V340.399C458.431 338.768 458.09 337.209 457.791 335.711V346.285H446.948V333.378H457.357L457.171 332.345H446.948V319.438H455.426L455.271 318.405H446.948V305.746C446.043 305.26 445.112 304.822 444.16 304.434H435.074V302.121L434.041 301.936V304.434H430.995L430.716 305.467H434.041V318.405H427.329L427.061 319.438H434.051V332.345H423.653L423.375 333.378H434.041V346.285H423.199V334.039L422.166 337.952V346.213H419.977L419.709 347.245H422.166V353.782L423.199 356.332V347.318H434.041V360.225H424.748L425.161 361.258H434.041V374.165H430.427L430.85 375.197H434.093V383.221L435.125 385.771V375.197H445.916V388.105H436.013L436.437 389.137H445.916V402.045H435.074V398.472L434.041 398.833V402.045H424.81L421.836 403.077H422.166V415.985H411.324V406.691L410.292 407.053V415.933H409.992L411.324 419.815V416.965H422.166V434.519H423.199V416.965H434.041V434.385H435.074V416.986H445.916V434.055H446.948V416.986H457.791V433.507L458.823 433.425V416.986H469.665V431.153L470.698 430.761V416.986H481.54V423.471C481.901 423.047 482.252 422.624 482.573 422.19ZM434.041 415.995H423.199V403.077H434.041V415.995ZM445.916 415.995H435.074V403.077H445.916V415.995ZM445.916 374.175H435.074V361.268H445.916V374.175ZM445.916 360.235H435.074V347.318H445.916V360.235ZM445.916 346.295H435.074V333.388H445.916V346.295ZM445.916 332.356H435.074V319.438H445.916V332.356ZM445.916 318.416H435.074V305.508H445.916V318.416ZM457.791 415.995H446.948V403.077H457.791V415.995ZM457.791 402.055H446.948V389.148H457.791V402.055ZM457.791 388.115H446.948V375.197H457.791V388.115ZM457.791 374.175H446.948V361.268H457.791V374.175ZM457.791 360.235H446.948V347.318H457.791V360.235ZM469.665 415.995H458.823V403.077H469.665V415.995ZM469.665 402.055H458.823V389.148H469.665V402.055ZM469.665 388.115H458.823V375.197H469.665V388.115ZM470.698 415.995V403.077H481.54V415.985L470.698 415.995Z"/>
</mask>
<path d="M482.573 422.19V417.027H485.268C485.381 416.687 485.474 416.346 485.557 415.995H482.573V403.077H484.121C484.008 402.747 483.884 402.396 483.77 402.045H482.573V398.895C482.242 398.038 481.901 397.161 481.54 396.283V402.045H470.698V389.137H478.484C478.329 388.797 478.184 388.456 478.029 388.105H470.698V375.197H472.143C471.978 374.857 471.823 374.516 471.668 374.165H470.698V372.007C470.357 371.243 470.006 370.479 469.665 369.704V374.165H458.823V361.258H466.051C465.907 360.917 465.762 360.576 465.628 360.225H458.823V347.318H460.754C460.64 346.977 460.537 346.626 460.434 346.285H458.823V340.399C458.431 338.768 458.09 337.209 457.791 335.711V346.285H446.948V333.378H457.357L457.171 332.345H446.948V319.438H455.426L455.271 318.405H446.948V305.746C446.043 305.26 445.112 304.822 444.16 304.434H435.074V302.121L434.041 301.936V304.434H430.995L430.716 305.467H434.041V318.405H427.329L427.061 319.438H434.051V332.345H423.653L423.375 333.378H434.041V346.285H423.199V334.039L422.166 337.952V346.213H419.977L419.709 347.245H422.166V353.782L423.199 356.332V347.318H434.041V360.225H424.748L425.161 361.258H434.041V374.165H430.427L430.85 375.197H434.093V383.221L435.125 385.771V375.197H445.916V388.105H436.013L436.437 389.137H445.916V402.045H435.074V398.472L434.041 398.833V402.045H424.81L421.836 403.077H422.166V415.985H411.324V406.691L410.292 407.053V415.933H409.992L411.324 419.815V416.965H422.166V434.519H423.199V416.965H434.041V434.385H435.074V416.986H445.916V434.055H446.948V416.986H457.791V433.507L458.823 433.425V416.986H469.665V431.153L470.698 430.761V416.986H481.54V423.471C481.901 423.047 482.252 422.624 482.573 422.19ZM434.041 415.995H423.199V403.077H434.041V415.995ZM445.916 415.995H435.074V403.077H445.916V415.995ZM445.916 374.175H435.074V361.268H445.916V374.175ZM445.916 360.235H435.074V347.318H445.916V360.235ZM445.916 346.295H435.074V333.388H445.916V346.295ZM445.916 332.356H435.074V319.438H445.916V332.356ZM445.916 318.416H435.074V305.508H445.916V318.416ZM457.791 415.995H446.948V403.077H457.791V415.995ZM457.791 402.055H446.948V389.148H457.791V402.055ZM457.791 388.115H446.948V375.197H457.791V388.115ZM457.791 374.175H446.948V361.268H457.791V374.175ZM457.791 360.235H446.948V347.318H457.791V360.235ZM469.665 415.995H458.823V403.077H469.665V415.995ZM469.665 402.055H458.823V389.148H469.665V402.055ZM469.665 388.115H458.823V375.197H469.665V388.115ZM470.698 415.995V403.077H481.54V415.985L470.698 415.995Z" fill="#263238" stroke="#222222" stroke-width="2" mask="url(#path-117-inside-5_540_9816)"/>
</g>
<path d="M419.637 347.564L439.576 396.88L407.308 408.115L416.374 434.58C416.374 434.58 439.545 434.642 457.677 433.547C475.809 432.453 488.531 421.518 485.629 408.476C482.728 395.435 471.854 376.569 463.15 354.09C454.445 331.611 457.14 318.208 453.154 311.32C449.169 304.433 437.924 302.616 437.924 302.616L431.728 301.583" stroke="#222222" stroke-miterlimit="10"/>
<path d="M458.989 391.863C452.41 393.081 445.923 394.754 439.576 396.871C439.576 396.871 453.351 387.805 460.961 387.082" stroke="#222222" stroke-miterlimit="10"/>
<path d="M468.22 391.43C466.791 391.225 465.344 391.176 463.904 391.285" stroke="#222222" stroke-miterlimit="10"/>
<path d="M416.736 404.111C416.736 404.111 424.068 411.122 426.236 416.553C428.404 421.985 427.609 436.74 426.164 438.186C424.718 439.632 397.737 439.456 393.297 433.911C392.14 432.465 400.06 429.13 396.074 421.148C392.088 413.166 390.271 412.454 390.271 412.454C390.271 412.454 387.008 410.637 393.173 406.651C399.337 402.665 413.473 399.774 416.736 404.111Z" fill="#263238" stroke="#222222" stroke-miterlimit="10"/>
<path d="M481.014 460.013H454.25L450.904 407.104H484.36L481.014 460.013Z" fill="#263238" stroke="#263238" stroke-linejoin="round"/>
<path d="M485.847 407.188H449.428V414.892H485.847V407.188Z" fill="white" stroke="#263238" stroke-linejoin="round"/>
<path d="M485.847 407.476H449.428L453.062 402.912H482.202L485.847 407.476Z" fill="white" stroke="#263238" stroke-linejoin="round"/>
<path d="M481.995 444.494L483.327 423.419H451.937L453.269 444.494H481.995Z" fill="white" stroke="#263238" stroke-linejoin="round"/>
<path d="M326.778 463.536L359.759 454.821V459.282L326.778 468.524V463.536Z" fill="#263238" stroke="#263238" stroke-linejoin="round"/>
<path d="M359.758 454.821H187.327L153.995 463.536H326.777L359.758 454.821Z" fill="white" stroke="#263238" stroke-linejoin="round"/>
<path d="M326.777 363.891H153.995V468.522H326.777V363.891Z" fill="white" stroke="#263238" stroke-linejoin="round"/>
<path d="M326.778 379.028C289.192 380.815 266.806 415.458 233.546 438.67C203.229 459.838 165.788 463.452 154.037 464.02V468.522H326.778V379.028Z" fill="#263238" stroke="#263238" stroke-linejoin="round"/>
<path d="M326.777 463.534H153.995V468.522H326.777V463.534Z" fill="white" stroke="#263238" stroke-miterlimit="10"/>
<path d="M102.841 429.017C102.841 429.017 88.4472 405.991 100.002 393.032C111.556 380.073 130.226 386.31 134.077 398.308C137.929 410.307 129.761 430.463 129.761 430.463L102.841 429.017Z" fill="#049F85" stroke="#263238" stroke-linecap="round" stroke-linejoin="round"/>
<path d="M103.316 402.623C100.92 402.623 91.8025 399.267 88.9216 394.95C86.0407 390.634 85.545 381.031 93.7231 381.031C101.901 381.031 104.761 395.425 104.761 395.425L105.236 400.702" fill="#049F85"/>
<path d="M103.316 402.623C100.92 402.623 91.8025 399.267 88.9216 394.95C86.0407 390.634 85.545 381.031 93.7231 381.031C101.901 381.031 104.761 395.425 104.761 395.425L105.236 400.702" stroke="#263238" stroke-linecap="round" stroke-linejoin="round"/>
<path d="M110.699 393.661C108.551 392.629 101.891 385.525 101.241 380.372C100.59 375.219 104.452 366.422 111.752 370.046C119.053 373.67 115.201 387.858 115.201 387.858L113.27 392.794" fill="#049F85"/>
<path d="M110.699 393.661C108.551 392.629 101.891 385.525 101.241 380.372C100.59 375.219 104.452 366.422 111.752 370.046C119.053 373.67 115.201 387.858 115.201 387.858L113.27 392.794" stroke="#263238" stroke-linecap="round" stroke-linejoin="round"/>
<path d="M119.414 396.077C118.217 394.012 116.606 384.419 118.919 379.772C121.232 375.126 129.327 369.942 133.375 377.026C137.423 384.109 126.364 393.754 126.364 393.754L122.016 396.789" fill="#049F85"/>
<path d="M119.414 396.077C118.217 394.012 116.606 384.419 118.919 379.772C121.232 375.126 129.327 369.942 133.375 377.026C137.423 384.109 126.364 393.754 126.364 393.754L122.016 396.789" stroke="#263238" stroke-linecap="round" stroke-linejoin="round"/>
<path d="M122.275 413.28C121.882 410.905 123.679 401.363 127.438 397.791C131.196 394.218 140.603 392.163 141.956 400.207C143.308 408.251 129.565 413.486 129.565 413.486L124.402 414.828" fill="#049F85"/>
<path d="M122.275 413.28C121.882 410.905 123.679 401.363 127.438 397.791C131.196 394.218 140.603 392.163 141.956 400.207C143.308 408.251 129.565 413.486 129.565 413.486L124.402 414.828" stroke="#263238" stroke-linecap="round" stroke-linejoin="round"/>
<path d="M89.9756 389.159L91.5967 391.71" stroke="white" stroke-linecap="round" stroke-linejoin="round"/>
<path d="M94.6113 395.417L97.1515 397.492" stroke="white" stroke-linecap="round" stroke-linejoin="round"/>
<path d="M91.834 384.296L94.3741 388.003" stroke="white" stroke-linecap="round" stroke-linejoin="round"/>
<path d="M97.8535 391.019L100.631 396.109" stroke="white" stroke-linecap="round" stroke-linejoin="round"/>
<path d="M104.327 378.74L105.256 381.518" stroke="white" stroke-linecap="round" stroke-linejoin="round"/>
<path d="M107.57 386.608L109.191 388.932" stroke="white" stroke-linecap="round" stroke-linejoin="round"/>
<path d="M106.878 373.186L108.964 377.812" stroke="white" stroke-linecap="round" stroke-linejoin="round"/>
<path d="M98.7725 405.836L99.4746 409.997" stroke="white" stroke-linecap="round" stroke-linejoin="round"/>
<path d="M100.858 413.93L101.788 417.409" stroke="white" stroke-linecap="round" stroke-linejoin="round"/>
<path d="M103.171 406.062L104.1 410.688" stroke="white" stroke-linecap="round" stroke-linejoin="round"/>
<path d="M106.187 413.93L106.878 417.409" stroke="white" stroke-linecap="round" stroke-linejoin="round"/>
<path d="M107.808 400.042L109.191 406.527" stroke="white" stroke-linecap="round" stroke-linejoin="round"/>
<path d="M111.05 412.774L111.277 415.79" stroke="white" stroke-linecap="round" stroke-linejoin="round"/>
<path d="M113.59 397.957L114.746 403.977" stroke="white" stroke-linecap="round" stroke-linejoin="round"/>
<path d="M114.747 410.234L115.212 416.482" stroke="white" stroke-linecap="round" stroke-linejoin="round"/>
<path d="M120.312 400.27V405.371" stroke="white" stroke-linecap="round" stroke-linejoin="round"/>
<path d="M119.61 411.855L119.848 415.79" stroke="white" stroke-linecap="round" stroke-linejoin="round"/>
<path d="M126.095 376.189L124.938 378.977" stroke="white" stroke-linecap="round" stroke-linejoin="round"/>
<path d="M124.474 382.209L123.317 386.153" stroke="white" stroke-linecap="round" stroke-linejoin="round"/>
<path d="M131.185 381.518L129.337 385.225" stroke="white" stroke-linecap="round" stroke-linejoin="round"/>
<path d="M125.403 389.397L123.317 391.71" stroke="white" stroke-linecap="round" stroke-linejoin="round"/>
<path d="M121.004 381.291L120.312 384.296" stroke="white" stroke-linecap="round" stroke-linejoin="round"/>
<path d="M131.185 397.957L128.645 402.129" stroke="white" stroke-linecap="round" stroke-linejoin="round"/>
<path d="M127.024 404.669L125.63 408.376" stroke="white" stroke-linecap="round" stroke-linejoin="round"/>
<path d="M129.11 410.234L133.272 407.911" stroke="white" stroke-linecap="round" stroke-linejoin="round"/>
<path d="M135.821 397.957L133.735 401.437" stroke="white" stroke-linecap="round" stroke-linejoin="round"/>
<path d="M137.907 401.891L135.129 403.976" stroke="white" stroke-linecap="round" stroke-linejoin="round"/>
<path d="M134.913 420.983H95.5508V460.346H134.913V420.983Z" fill="#263238" stroke="#263238" stroke-linecap="round" stroke-linejoin="round"/>
<defs>
<filter id="filter0_d_540_9816" x="0.9" y="432.101" width="555.495" height="104.633" filterUnits="userSpaceOnUse" color-interpolation-filters="sRGB">
<feFlood flood-opacity="0" result="BackgroundImageFix"/>
<feColorMatrix in="SourceAlpha" type="matrix" values="0 0 0 0 0 0 0 0 0 0 0 0 0 0 0 0 0 0 127 0" result="hardAlpha"/>
<feOffset dy="21"/>
<feGaussianBlur stdDeviation="7.05"/>
<feComposite in2="hardAlpha" operator="out"/>
<feColorMatrix type="matrix" values="0 0 0 0 0.541667 0 0 0 0 0.541667 0 0 0 0 0.541667 0 0 0 0.25 0"/>
<feBlend mode="normal" in2="BackgroundImageFix" result="effect1_dropShadow_540_9816"/>
<feBlend mode="normal" in="SourceGraphic" in2="effect1_dropShadow_540_9816" result="shape"/>
</filter>
</defs>
</svg>
