<svg width="319" height="272" viewBox="0 0 319 272" fill="none" xmlns="http://www.w3.org/2000/svg">
<path d="M201.966 254.787C201.966 254.787 161.721 251.74 170.879 258.45C180.037 265.16 203.798 254.179 203.19 259.058C202.582 263.937 192.825 262.713 202.582 263.929C212.34 265.144 223.304 262.713 226.959 264.545C230.614 266.376 233.103 270.614 237.636 269.711C242.17 268.807 248.889 267.592 256.207 268.199C263.525 268.807 269.003 268.199 259.862 263.321C250.72 258.442 242.187 260.857 235.485 257.235C230.622 254.582 227.871 246.656 222.187 245.252C214.352 243.305 210.467 254.787 201.966 254.787Z" fill="#049F85"/>
<path opacity="0.6" d="M201.966 254.787C201.966 254.787 161.721 251.74 170.879 258.45C180.037 265.16 203.798 254.179 203.19 259.058C202.582 263.937 192.825 262.713 202.582 263.929C212.34 265.144 223.304 262.713 226.959 264.545C230.614 266.376 233.103 270.614 237.636 269.711C242.17 268.807 248.889 267.592 256.207 268.199C263.525 268.807 269.003 268.199 259.862 263.321C250.72 258.442 242.187 260.857 235.485 257.235C230.622 254.582 227.871 246.656 222.187 245.252C214.352 243.305 210.467 254.787 201.966 254.787Z" fill="white"/>
<path d="M62.9809 256.142C59.9585 256.774 55.9668 257.661 55.9668 257.661" stroke="#263238" stroke-linecap="round" stroke-linejoin="round"/>
<path d="M104.713 238.277C103.829 238.46 102.967 238.736 102.142 239.099C94.3391 242.696 93.7396 249.3 93.7396 249.3C90.5187 249.314 87.3105 249.703 84.1793 250.458C79.9823 251.657 78.7832 253.455 76.3767 254.655C74.4137 255.64 69.6336 255.418 66.3154 255.632" stroke="#263238" stroke-linecap="round" stroke-linejoin="round"/>
<path d="M280.567 257.02C281.84 257.061 283.031 257.061 284.001 257.061C284.699 257.06 285.387 257.223 286.012 257.535C286.636 257.847 287.179 258.301 287.598 258.859" stroke="#263238" stroke-linecap="round" stroke-linejoin="round"/>
<path d="M241.562 250.4C242.074 250.966 242.695 251.422 243.388 251.741C244.081 252.06 244.832 252.236 245.594 252.257C251.598 252.856 258.193 245.686 264.797 249.858C271.4 254.031 272.599 255.862 274.998 256.429C275.376 256.519 275.819 256.602 276.246 256.667" stroke="#263238" stroke-linecap="round" stroke-linejoin="round"/>
<path d="M221.342 239.436C226.06 239.012 230.788 240.142 234.803 242.656C236.77 243.881 238.424 245.549 239.633 247.526" stroke="#263238" stroke-linecap="round" stroke-linejoin="round"/>
<path d="M187.985 244.454C199.985 246.86 204.789 252.856 204.789 252.856C205.114 252.67 205.451 252.508 205.8 252.371C227.039 239.312 241.117 216.611 241.117 190.772C241.117 150.264 206.563 117.436 163.912 117.436C121.26 117.436 86.707 150.289 86.707 190.772C86.707 222.163 107.47 248.938 136.652 259.402L138.541 259.484C141.893 258.504 145.013 256.859 147.715 254.647C159.781 245.053 175.985 242.056 187.985 244.454Z" fill="white"/>
<mask id="mask0_845_1881" style="mask-type:luminance" maskUnits="userSpaceOnUse" x="86" y="117" width="156" height="143">
<path d="M187.985 244.453C199.985 246.859 204.789 252.855 204.789 252.855C205.114 252.669 205.451 252.507 205.8 252.37C227.039 239.311 241.117 216.61 241.117 190.771C241.117 150.263 206.563 117.435 163.912 117.435C121.26 117.435 86.707 150.288 86.707 190.771C86.707 222.162 107.47 248.937 136.652 259.401L138.541 259.483C141.893 258.503 145.013 256.858 147.715 254.646C159.781 245.052 175.985 242.055 187.985 244.453Z" fill="white"/>
</mask>
<g mask="url(#mask0_845_1881)">
<g style="mix-blend-mode:multiply" opacity="0.5">
<path d="M164.364 117.45L138.509 130.025C138.509 130.025 146.344 138.493 161.744 140.037C177.144 141.581 180.733 136.957 180.733 136.957C180.733 136.957 187.402 153.893 203.829 159.535C220.256 165.178 228.14 164.225 234.621 177.497C241.101 190.77 233.594 200.084 233.594 200.084C233.594 200.084 236.674 204.191 234.621 207.78C232.567 211.369 233.594 213.422 228.978 213.422C224.362 213.422 219.221 210.86 219.221 210.86C220.84 213.033 222.951 214.792 225.381 215.993C227.838 216.955 230.446 217.475 233.085 217.529C233.085 217.529 231.031 223.689 221.274 231.902C211.517 240.115 205.882 242.161 195.106 242.161C184.331 242.161 174.573 236.009 159.182 245.241C150.057 250.719 144.537 255.466 141.556 258.431C143.791 257.456 145.885 256.186 147.782 254.653C159.781 245.052 175.986 242.054 187.986 244.452C199.985 246.85 204.79 252.854 204.79 252.854C205.114 252.668 205.452 252.506 205.8 252.37C227.04 239.311 241.117 216.609 241.117 190.77C241.109 150.394 206.786 117.672 164.364 117.45Z" fill="#049F85"/>
</g>
</g>
<path d="M187.985 244.454C199.985 246.86 204.789 252.856 204.789 252.856C205.114 252.67 205.451 252.508 205.8 252.371C227.039 239.312 241.117 216.611 241.117 190.772C241.117 150.264 206.563 117.436 163.912 117.436C121.26 117.436 86.707 150.289 86.707 190.772C86.707 222.163 107.47 248.938 136.652 259.402L138.541 259.484C141.893 258.504 145.013 256.859 147.715 254.647C159.781 245.053 175.985 242.056 187.985 244.454Z" stroke="#263238" stroke-linecap="round" stroke-linejoin="round"/>
<path d="M192.847 166.223C197.583 166.223 201.422 162.616 201.422 158.166C201.422 153.716 197.583 150.108 192.847 150.108C188.111 150.108 184.272 153.716 184.272 158.166C184.272 162.616 188.111 166.223 192.847 166.223Z" fill="#263238" stroke="#263238" stroke-linecap="round" stroke-linejoin="round"/>
<path d="M199.608 205.212C204.344 205.212 208.183 201.605 208.183 197.155C208.183 192.705 204.344 189.098 199.608 189.098C194.872 189.098 191.033 192.705 191.033 197.155C191.033 201.605 194.872 205.212 199.608 205.212Z" fill="#263238" stroke="#263238" stroke-linecap="round" stroke-linejoin="round"/>
<path d="M97.9996 169.952C97.5641 175.36 99.2654 180.724 102.739 184.892" stroke="#263238" stroke-linecap="round" stroke-linejoin="round"/>
<path d="M105.295 187.438C105.295 187.438 107.841 190.353 110.757 191.084" stroke="#263238" stroke-linecap="round" stroke-linejoin="round"/>
<path d="M98.7324 192.908C98.7324 192.908 101.648 200.563 111.488 204.21" stroke="#263238" stroke-linecap="round" stroke-linejoin="round"/>
<path d="M96.9072 181.605C96.9072 181.605 99.8229 189.983 106.385 193.991" stroke="#263238" stroke-linecap="round" stroke-linejoin="round"/>
<path d="M102.008 203.84C104.775 206.105 108.013 207.724 111.486 208.579" stroke="#263238" stroke-linecap="round" stroke-linejoin="round"/>
<path d="M108.21 224.249C108.21 224.249 112.218 230.08 126.066 232.635" stroke="#263238" stroke-linecap="round" stroke-linejoin="round"/>
<path d="M120.965 234.819C123.223 235.974 125.714 236.598 128.25 236.643" stroke="#263238" stroke-linecap="round" stroke-linejoin="round"/>
<path d="M207.147 143.875L251.335 95.0058C251.335 95.0058 253.47 69.2983 256.591 69.2983C259.712 69.2983 260.698 70.0539 260.172 74.2262C259.647 78.3986 256.337 91.2606 256.337 91.2606C256.337 91.2606 264.846 83.0473 269.527 76.3206C274.209 69.5939 278.365 59.1631 282.521 59.1631C286.677 59.1631 286.167 63.3272 283.046 68.0006C279.925 72.6739 248.731 104.911 250.809 105.954C252.887 106.997 274.209 90.3489 274.726 94.513C275.244 98.6772 239.894 117.88 233.134 124.114C226.375 130.348 209.743 149.575 209.743 149.575L207.147 143.875Z" fill="#049F85" stroke="#263238" stroke-linecap="round" stroke-linejoin="round"/>
<path opacity="0.5" d="M207.147 143.875L251.335 95.0058C251.335 95.0058 253.47 69.2983 256.591 69.2983C259.712 69.2983 260.698 70.0539 260.172 74.2262C259.647 78.3986 256.337 91.2606 256.337 91.2606C256.337 91.2606 264.846 83.0473 269.527 76.3206C274.209 69.5939 278.365 59.1631 282.521 59.1631C286.677 59.1631 286.167 63.3272 283.046 68.0006C279.925 72.6739 248.731 104.911 250.809 105.954C252.887 106.997 274.209 90.3489 274.726 94.513C275.244 98.6772 239.894 117.88 233.134 124.114C226.375 130.348 209.743 149.575 209.743 149.575L207.147 143.875Z" fill="black"/>
<path d="M285.148 61.6523L280.557 67.5166" stroke="#263238" stroke-linecap="round" stroke-linejoin="round"/>
<path d="M279.029 68.7891L276.737 71.8526" stroke="#263238" stroke-linecap="round" stroke-linejoin="round"/>
<path d="M245.372 109.848L241.29 113.93" stroke="#263238" stroke-linecap="round" stroke-linejoin="round"/>
<path d="M77.0732 124.386L90.3295 133.051" stroke="#263238" stroke-linecap="round" stroke-linejoin="round"/>
<path d="M92.1123 134.067L96.1943 136.876" stroke="#263238" stroke-linecap="round" stroke-linejoin="round"/>
<path d="M117.212 143.874L87.0524 125.156C71.981 115.801 61.5912 108.516 61.5912 108.516L57.4353 78.3651C55.8983 78.0227 54.3285 77.8492 52.7537 77.8477C50.1501 77.8477 49.6327 81.4861 49.6327 81.4861C49.6327 81.4861 48.5978 80.9687 51.7107 87.7282C54.8235 94.4878 55.3409 104.401 55.3409 104.401C55.3409 104.401 43.9327 93.4447 36.1054 87.7282C28.2782 82.0118 27.268 78.3651 23.112 77.8723C18.9561 77.3795 18.4305 84.6318 20.5166 86.7098C22.6028 88.7877 60.5399 115.3 63.1435 116.861C65.7472 118.421 48.064 113.74 44.4255 112.705C40.787 111.67 38.6762 112.187 40.2696 115.3C41.8629 118.413 70.938 123.103 70.938 123.103L111.487 149.574C111.487 149.574 116.21 152.186 117.212 143.874Z" fill="#049F85" stroke="#263238" stroke-linecap="round" stroke-linejoin="round"/>
<path opacity="0.5" d="M117.212 143.874L87.0524 125.156C71.981 115.801 61.5912 108.516 61.5912 108.516L57.4353 78.3651C55.8983 78.0227 54.3285 77.8492 52.7537 77.8477C50.1501 77.8477 49.6327 81.4861 49.6327 81.4861C49.6327 81.4861 48.5978 80.9687 51.7107 87.7282C54.8235 94.4878 55.3409 104.401 55.3409 104.401C55.3409 104.401 43.9327 93.4447 36.1054 87.7282C28.2782 82.0118 27.268 78.3651 23.112 77.8723C18.9561 77.3795 18.4305 84.6318 20.5166 86.7098C22.6028 88.7877 60.5399 115.3 63.1435 116.861C65.7472 118.421 48.064 113.74 44.4255 112.705C40.787 111.67 38.6762 112.187 40.2696 115.3C41.8629 118.413 70.938 123.103 70.938 123.103L111.487 149.574C111.487 149.574 116.21 152.186 117.212 143.874Z" fill="black"/>
<path d="M23.1111 77.8477C23.1111 77.8477 24.7537 77.9709 24.7537 81.7982C24.7537 85.6256 23.5874 88.2621 20.4746 86.7262" stroke="#263238" stroke-linecap="round" stroke-linejoin="round"/>
<path d="M25.0498 87.6631L30.6595 92.2543" stroke="#263238" stroke-linecap="round" stroke-linejoin="round"/>
<path d="M24.541 83.5811L28.1056 86.6446" stroke="#263238" stroke-linecap="round" stroke-linejoin="round"/>
<path d="M122.345 69.9798C122.345 69.9798 121.425 60.6577 115.988 54.1282C112.836 50.2843 108.97 47.0855 104.604 44.7076C104.604 44.7076 111.003 22.2771 138.755 14.4745C159.855 8.54452 168.323 12.0598 168.323 12.0598C168.323 12.0598 167.091 33.7757 175.814 46.958C175.805 46.958 155.864 45.2661 122.345 69.9798Z" fill="#263238" stroke="#263238" stroke-linecap="round" stroke-linejoin="round"/>
<path d="M112.39 48.1248C114.607 43.3727 117.965 39.2422 122.163 36.1006" stroke="white" stroke-linecap="round" stroke-linejoin="round"/>
<path d="M124.423 34.59C124.423 34.59 127.799 32.7092 130.435 31.584" stroke="white" stroke-linecap="round" stroke-linejoin="round"/>
<path d="M117.276 50.7525C117.276 50.7525 121.785 43.2374 127.798 39.8535" stroke="white" stroke-linecap="round" stroke-linejoin="round"/>
<path d="M167.264 29.709C163.089 28.6056 158.717 28.4763 154.484 29.3312" stroke="white" stroke-linecap="round" stroke-linejoin="round"/>
<path d="M146.319 36.2307C133.761 40.0581 123.938 48.1728 118.542 57.9219C120.518 61.6795 121.805 65.76 122.345 69.9708C155.863 45.2571 175.805 46.9737 175.805 46.9737C173.475 43.2856 171.75 39.2484 170.696 35.0151C162.597 33.3748 154.215 33.7927 146.319 36.2307Z" fill="#049F85" stroke="#263238" stroke-linecap="round" stroke-linejoin="round"/>
<path d="M165.829 92.6063C192.372 81.0868 209.589 61.8378 204.284 49.6125C198.978 37.3871 173.159 36.815 146.615 48.3345C120.072 59.854 102.855 79.103 108.16 91.3283C113.466 103.554 139.285 104.126 165.829 92.6063Z" fill="#263238" stroke="#263238" stroke-linecap="round" stroke-linejoin="round"/>
<path d="M166.582 95.2352C193.126 83.7157 210.343 64.4667 205.037 52.2414C199.732 40.0161 173.913 39.4439 147.369 50.9634C120.826 62.4829 103.609 81.7319 108.914 93.9572C114.22 106.183 140.039 106.755 166.582 95.2352Z" fill="#263238" stroke="#263238" stroke-linecap="round" stroke-linejoin="round"/>
<path d="M114.156 74.6279C120.899 66.0368 132.71 57.3225 147.371 50.9572C168.282 41.8815 188.741 40.2799 199.073 46.0292" stroke="white" stroke-linecap="round" stroke-linejoin="round"/>
<path d="M108.817 84.0237C109.619 81.6988 110.724 79.4895 112.103 77.4531" stroke="white" stroke-linecap="round" stroke-linejoin="round"/>
<path d="M135.347 110.332C134.657 110.879 134.126 111.601 133.81 112.423C133.494 113.245 133.403 114.137 133.549 115.005C133.91 118.233 135.347 118.595 134.271 121.116C133.195 123.638 131.75 125.067 134.624 127.219C137.499 129.37 144.333 135.489 159.429 135.489C174.525 135.489 183.51 132.615 189.621 127.58C195.731 122.545 192.857 120.755 192.857 117.519C192.857 114.283 195.731 112.484 192.134 108.533C188.536 104.583 181.711 120.007 135.347 110.332Z" fill="#049F85" stroke="#263238" stroke-linecap="round" stroke-linejoin="round"/>
<path opacity="0.3" d="M135.347 110.332C134.657 110.879 134.126 111.601 133.81 112.423C133.494 113.245 133.403 114.137 133.549 115.005C133.91 118.233 135.347 118.595 134.271 121.116C133.195 123.638 131.75 125.067 134.624 127.219C137.499 129.37 144.333 135.489 159.429 135.489C174.525 135.489 183.51 132.615 189.621 127.58C195.731 122.545 192.857 120.755 192.857 117.519C192.857 114.283 195.731 112.484 192.134 108.533C188.536 104.583 181.711 120.007 135.347 110.332Z" fill="black"/>
<path d="M179.09 133.066C182.928 131.951 186.507 130.086 189.619 127.579C189.8 127.431 189.972 127.292 190.136 127.144C189.488 122.52 188.009 116.803 185.512 112.442C185.028 111.621 184.593 110.84 184.174 110.167C178.424 112.319 168.568 114.914 150.245 112.795L143.411 114.734C143.411 114.734 139.584 118.183 139.584 121.247V125.452L138.508 130.027C141.476 131.897 144.722 133.283 148.126 134.133L148.388 128.121C148.388 128.121 148.388 120.852 151.444 119.703C154.499 118.553 160.634 121.238 160.634 121.238L160.027 135.472C164.116 135.483 168.201 135.192 172.248 134.601C172.634 131.152 172.921 125.748 171.739 121.238L169.825 113.962L177.858 112.812C177.858 112.812 180.157 119.703 179.771 125.83C179.591 128.77 179.32 131.259 179.09 133.066Z" fill="#263238" stroke="#263238" stroke-linecap="round" stroke-linejoin="round"/>
<path d="M195.73 126.504C195.73 126.504 206.514 136.927 223.048 127.58C239.581 118.233 242.094 112.123 251.08 111.047C256.688 110.401 262.344 110.28 267.974 110.685L266.176 127.933C266.176 127.933 260.426 125.059 243.179 131.169C225.931 137.28 217.307 141.592 206.523 138.356C195.739 135.12 195.73 126.504 195.73 126.504Z" fill="#049F85" stroke="#263238" stroke-linecap="round" stroke-linejoin="round"/>
<path opacity="0.4" d="M195.73 126.504C195.73 126.504 206.514 136.927 223.048 127.58C239.581 118.233 242.094 112.123 251.08 111.047C256.688 110.401 262.344 110.28 267.974 110.685L266.176 127.933C266.176 127.933 260.426 125.059 243.179 131.169C225.931 137.28 217.307 141.592 206.523 138.356C195.739 135.12 195.73 126.504 195.73 126.504Z" fill="black"/>
<path d="M255.761 110.627L252.55 128.417C262.586 126.15 266.184 127.94 266.184 127.94L267.983 110.693C263.915 110.396 259.832 110.374 255.761 110.627Z" fill="#263238" stroke="#263238" stroke-linecap="round" stroke-linejoin="round"/>
<path d="M222.817 138.166C227.253 137 232.213 135.143 238.308 132.926L242.932 114.093C239.006 116.606 234.776 120.507 226.62 125.485L222.817 138.166Z" fill="#263238" stroke="#263238" stroke-linecap="round" stroke-linejoin="round"/>
<path d="M169.489 122.192C169.489 122.192 178.836 120.007 181.711 125.756C184.585 131.506 188.544 141.214 203.64 148.753C218.736 156.293 236.707 152.351 249.634 149.829C262.562 147.308 270.841 149.829 270.841 149.829L272.64 128.27C272.64 128.27 260.418 119.284 247.121 124.672C233.824 130.06 216.206 135.818 205.422 131.144C194.638 126.471 192.848 113.896 186.376 114.249C186.384 114.258 171.288 119.67 169.489 122.192Z" fill="#049F85" stroke="#263238" stroke-linecap="round" stroke-linejoin="round"/>
<path opacity="0.3" d="M169.489 122.192C169.489 122.192 178.836 120.007 181.711 125.756C184.585 131.506 188.544 141.214 203.64 148.753C218.736 156.293 236.707 152.351 249.634 149.829C262.562 147.308 270.841 149.829 270.841 149.829L272.64 128.27C272.64 128.27 260.418 119.284 247.121 124.672C233.824 130.06 216.206 135.818 205.422 131.144C194.638 126.471 192.848 113.896 186.376 114.249C186.384 114.258 171.288 119.67 169.489 122.192Z" fill="black"/>
<path d="M191.994 117.698L179.765 123.497C180.591 124.087 181.26 124.871 181.711 125.78C182.639 127.645 183.682 129.887 185.177 132.392L197.267 124.786C195.189 122.298 193.579 119.694 191.994 117.698Z" fill="#263238" stroke="#263238" stroke-linecap="round" stroke-linejoin="round"/>
<path d="M212.166 151.85L220.815 132.483C216.876 133.112 212.859 133.059 208.938 132.327L198.516 145.937C200.174 146.987 201.884 147.952 203.641 148.828C206.357 150.16 209.217 151.175 212.166 151.85Z" fill="#263238" stroke="#263238" stroke-linecap="round" stroke-linejoin="round"/>
<path d="M253.766 149.212L256.657 122.996C253.397 122.895 250.151 123.477 247.129 124.704C245.38 125.41 243.556 126.125 241.684 126.823L237.676 152.038C241.947 151.389 245.996 150.567 249.643 149.853C251.08 149.574 252.451 149.377 253.766 149.212Z" fill="#263238" stroke="#263238" stroke-linecap="round" stroke-linejoin="round"/>
<path d="M198.235 86.8652C198.233 96.5441 194.386 105.826 187.541 112.669C180.697 119.512 171.414 123.357 161.735 123.357C141.588 123.357 126.278 110.988 126.278 90.8322C126.278 70.6768 145.916 56.4268 166.072 56.4268C186.227 56.4268 198.235 66.7098 198.235 86.8652Z" fill="white"/>
<mask id="mask1_845_1881" style="mask-type:luminance" maskUnits="userSpaceOnUse" x="126" y="56" width="73" height="68">
<path d="M198.235 86.8652C198.233 96.5441 194.386 105.826 187.541 112.669C180.697 119.512 171.414 123.357 161.735 123.357C141.588 123.357 126.278 110.988 126.278 90.8322C126.278 70.6768 145.916 56.4268 166.072 56.4268C186.227 56.4268 198.235 66.7098 198.235 86.8652Z" fill="white"/>
</mask>
<g mask="url(#mask1_845_1881)">
<g style="mix-blend-mode:multiply" opacity="0.5">
<path d="M166.072 56.4268C145.916 56.4268 126.278 70.6768 126.278 90.8322C126.284 93.3728 126.56 95.9057 127.1 98.3884C131.469 92.2859 141.719 81.8304 162.811 76.9107C174.395 74.3013 186.487 75.1116 197.619 79.2432C194.835 64.1554 183.508 56.4268 166.072 56.4268Z" fill="#049F85"/>
</g>
<g style="mix-blend-mode:multiply" opacity="0.5">
<path d="M194.096 103.734C196.807 98.5252 198.217 92.7367 198.202 86.8641C198.202 80.2935 196.921 74.8071 194.515 70.3555C194.581 77.5434 193.904 84.7189 192.494 91.7675C191.322 89.0396 189.615 86.5738 187.476 84.5151C183.689 80.9259 176.109 80.7288 174.712 85.3365C174.712 85.3365 175.706 91.5211 179.304 93.3116C181.891 94.481 184.651 95.2217 187.476 95.5045C188.015 96.6909 188.761 97.7726 189.677 98.6995C189.948 98.9295 190.162 99.1019 190.35 99.2498C185.784 111.652 177.768 117.064 167.92 119.783C158.212 122.477 147.781 120.218 140.98 117.976C147.27 121.62 154.435 123.477 161.703 123.348C168.375 123.348 174.92 121.519 180.625 118.06C186.331 114.6 190.978 109.643 194.063 103.726L194.096 103.734Z" fill="#049F85"/>
</g>
</g>
<path d="M198.235 86.8652C198.233 96.5441 194.386 105.826 187.541 112.669C180.697 119.512 171.414 123.357 161.735 123.357C141.588 123.357 126.278 110.988 126.278 90.8322C126.278 70.6768 145.916 56.4268 166.072 56.4268C186.227 56.4268 198.235 66.7098 198.235 86.8652Z" stroke="#263238" stroke-linecap="round" stroke-linejoin="round"/>
<path d="M171.757 72.3703C172.512 74.3333 172.381 76.2141 171.477 76.5591C170.574 76.9041 169.211 75.6063 168.455 73.6352C167.699 71.664 167.831 69.7914 168.734 69.4464C169.638 69.1014 170.993 70.3909 171.757 72.3703Z" fill="#263238"/>
<path d="M183.058 70.3089C183.813 72.2718 183.69 74.1444 182.778 74.4976C181.867 74.8508 180.52 73.5367 179.764 71.5737C179.009 69.6107 179.132 67.7299 180.043 67.3767C180.955 67.0235 182.302 68.3377 183.058 70.3089Z" fill="#263238"/>
<path d="M166.903 101.199C166.903 101.199 152.39 100.378 155.297 86.6943" stroke="#263238" stroke-linecap="round" stroke-linejoin="round"/>
<path d="M159.443 86.2754L151.978 87.1049" stroke="#263238" stroke-linecap="round" stroke-linejoin="round"/>
<path d="M130.073 86.1279C130.073 86.1279 130.073 88.6823 133.72 90.5056" stroke="#263238" stroke-linecap="round" stroke-linejoin="round"/>
<path d="M131.165 91.959C131.165 91.959 134.081 94.5133 136.635 94.5133" stroke="#263238" stroke-linecap="round" stroke-linejoin="round"/>
<path d="M163.698 66.8337C163.86 65.6247 164.473 64.5216 165.415 63.7461C166.356 62.9707 167.556 62.5802 168.774 62.6532" stroke="#263238" stroke-linecap="round" stroke-linejoin="round"/>
<path d="M177.875 62.6533C177.875 62.6533 181.448 60.8628 183.238 64.5917" stroke="#263238" stroke-linecap="round" stroke-linejoin="round"/>
<path d="M178.539 75.7295C176.7 77.0146 175.333 78.8666 174.646 81.0024C173.743 84.3288 175.287 89.2978 179.204 89.8071C181.899 90.0262 184.608 89.6011 187.106 88.5669C189.98 89.0438 192.922 88.9207 195.746 88.2055C200.436 87.0228 200.14 84.4849 200.14 84.4849C200.14 84.4849 201.487 84.9694 206.136 83.4664C210.785 81.9634 211.335 78.3577 211.335 78.3577C211.335 78.3577 212.32 78.5631 216.016 77.1668C219.712 75.7706 223.211 75.3681 223.302 73.4298C223.392 71.4914 212.148 71.5079 209.643 72.1239C207.138 72.7399 204.846 72.3538 201.668 72.7234C199.826 72.9209 198.035 73.4555 196.387 74.3004C196.387 74.3004 192.395 73.1588 189.857 73.4791C188.466 73.628 187.092 73.9029 185.75 74.3004C185.75 74.3004 180.149 72.9698 178.539 75.7295Z" fill="#049F85" stroke="#263238" stroke-linecap="round" stroke-linejoin="round"/>
<path d="M185.768 74.2422C185.151 74.6814 184.657 75.2715 184.334 75.956C184.01 76.6404 183.868 77.3964 183.92 78.1517" stroke="#263238" stroke-linecap="round" stroke-linejoin="round"/>
<path d="M183.92 80.1074C183.83 81.0567 184.083 82.007 184.635 82.7849" stroke="#263238" stroke-linecap="round" stroke-linejoin="round"/>
<path d="M197.103 78.1191C196.827 79.3625 196.976 80.6627 197.527 81.811C198.078 82.9593 198.999 83.8892 200.142 84.4516" stroke="#263238" stroke-linecap="round" stroke-linejoin="round"/>
<path d="M209.932 73.5205C209.932 73.5205 209.398 74.2268 210.113 75.9845" stroke="#263238" stroke-linecap="round" stroke-linejoin="round"/>
<path d="M61.0244 202.024C60.5727 203.158 58.503 203.396 56.3921 202.558C54.2813 201.72 52.9344 200.094 53.3861 198.985C53.8378 197.876 55.9158 197.614 58.0266 198.451C60.1374 199.289 61.4762 200.891 61.0244 202.024Z" fill="white" stroke="#263238" stroke-linecap="round" stroke-linejoin="round"/>
<path d="M44.2543 136.36C43.8026 137.493 41.7246 137.732 39.6138 136.894C37.503 136.056 36.1642 134.43 36.616 133.321C37.0677 132.212 39.1457 131.95 41.2483 132.787C43.3509 133.625 44.706 135.218 44.2543 136.36Z" fill="white" stroke="#263238" stroke-linecap="round" stroke-linejoin="round"/>
<path d="M90.3867 67.4411C89.935 68.5745 87.8652 68.8127 85.7544 67.975C83.6436 67.1372 82.3049 65.511 82.7566 64.4022C83.2083 63.2934 85.2781 63.0306 87.3889 63.8683C89.4997 64.7061 90.8384 66.3323 90.3867 67.4411Z" fill="white" stroke="#263238" stroke-linecap="round" stroke-linejoin="round"/>
<path d="M254.744 172.005C254.292 173.138 252.214 173.376 250.103 172.538C247.992 171.701 246.653 170.074 247.105 168.966C247.557 167.857 249.635 167.594 251.738 168.432C253.84 169.27 255.195 170.863 254.744 172.005Z" fill="white" stroke="#263238" stroke-linecap="round" stroke-linejoin="round"/>
<path d="M282.274 43.5075C281.822 44.6409 279.744 44.8791 277.633 44.0414C275.523 43.2036 274.184 41.5774 274.635 40.4686C275.087 39.3598 277.157 39.097 279.268 39.9347C281.379 40.7725 282.717 42.3741 282.274 43.5075Z" fill="white" stroke="#263238" stroke-linecap="round" stroke-linejoin="round"/>
<path d="M141.58 107.284C141.128 108.417 139.059 108.655 136.948 107.818C134.837 106.98 133.498 105.354 133.95 104.245C134.402 103.136 136.471 102.873 138.582 103.711C140.693 104.549 142.032 106.15 141.58 107.284Z" fill="white" stroke="#263238" stroke-linecap="round" stroke-linejoin="round"/>
<path d="M286.315 239.379C285.863 240.512 283.794 240.75 281.683 239.912C279.572 239.075 278.233 237.448 278.677 236.34C279.12 235.231 281.206 234.968 283.317 235.806C285.428 236.644 286.767 238.278 286.315 239.379Z" fill="white" stroke="#263238" stroke-linecap="round" stroke-linejoin="round"/>
<path d="M216.79 267.18C219.584 267.18 221.849 265.059 221.849 262.441C221.849 259.824 219.584 257.702 216.79 257.702C213.996 257.702 211.73 259.824 211.73 262.441C211.73 265.059 213.996 267.18 216.79 267.18Z" fill="white" stroke="#263238" stroke-linecap="round" stroke-linejoin="round"/>
<path d="M240.812 266.556C240.812 267.181 240.627 267.792 240.28 268.312C239.932 268.832 239.438 269.238 238.86 269.477C238.283 269.716 237.647 269.779 237.034 269.657C236.42 269.535 235.857 269.234 235.414 268.792C234.972 268.349 234.671 267.786 234.549 267.173C234.427 266.559 234.49 265.923 234.729 265.346C234.968 264.768 235.374 264.274 235.894 263.926C236.414 263.579 237.025 263.394 237.65 263.394C238.489 263.394 239.293 263.727 239.886 264.32C240.479 264.913 240.812 265.717 240.812 266.556Z" fill="white" stroke="#263238" stroke-linecap="round" stroke-linejoin="round"/>
<path d="M38.7334 57.1179C38.2899 58.2596 36.2119 58.4977 34.1011 57.66C31.9903 56.8222 30.6515 55.196 31.1033 54.0872C31.555 52.9784 33.6247 52.7074 35.7356 53.5451C37.8464 54.3829 39.1851 55.9845 38.7334 57.1179Z" fill="white" stroke="#263238" stroke-linecap="round" stroke-linejoin="round"/>
<path d="M226.424 35.2056C226.104 36.0269 224.617 36.1912 223.139 35.5916C221.66 34.992 220.675 33.8504 220.995 33.0373C221.315 32.2242 222.802 32.0517 224.28 32.6513C225.759 33.2508 226.744 34.3925 226.424 35.2056Z" fill="white" stroke="#263238" stroke-linecap="round" stroke-linejoin="round"/>
<path d="M102.141 7.60794C101.812 8.42927 100.334 8.59353 98.8556 7.99396C97.3772 7.39439 96.3916 6.25275 96.7119 5.43963C97.0322 4.62652 98.5188 4.45404 99.9972 5.05361C101.476 5.65318 102.461 6.79482 102.141 7.60794Z" fill="white" stroke="#263238" stroke-linecap="round" stroke-linejoin="round"/>
<path d="M6.24204 162.954C5.92172 163.776 4.43512 163.94 2.95673 163.34C1.47834 162.741 0.492748 161.591 0.804852 160.778C1.11696 159.965 2.61177 159.801 4.09016 160.392C5.56855 160.983 6.57057 162.141 6.24204 162.954Z" fill="white" stroke="#263238" stroke-linecap="round" stroke-linejoin="round"/>
<path d="M311.776 170.026C311.448 170.847 309.969 171.011 308.491 170.412C307.013 169.812 306.027 168.671 306.339 167.858C306.651 167.044 308.146 166.872 309.624 167.472C311.103 168.071 312.097 169.213 311.776 170.026Z" fill="white" stroke="#263238" stroke-linecap="round" stroke-linejoin="round"/>
<path d="M185.775 13.4726C185.455 14.2939 183.968 14.4582 182.49 13.8586C181.012 13.2591 180.026 12.1092 180.338 11.2961C180.65 10.483 182.145 10.3105 183.623 10.9101C185.102 11.5096 186.104 12.6595 185.775 13.4726Z" fill="white" stroke="#263238" stroke-linecap="round" stroke-linejoin="round"/>
<path d="M60.8846 211.387C60.5643 212.209 59.0777 212.373 57.5993 211.773C56.1209 211.174 55.1353 210.032 55.4474 209.219C55.7595 208.406 57.2544 208.233 58.7327 208.833C60.2111 209.432 61.1803 210.574 60.8846 211.387Z" fill="white" stroke="#263238" stroke-linecap="round" stroke-linejoin="round"/>
<path d="M241.643 218.968C241.323 219.79 239.836 219.954 238.358 219.354C236.88 218.755 235.894 217.613 236.206 216.8C236.518 215.987 238.013 215.814 239.492 216.414C240.97 217.014 241.972 218.155 241.643 218.968Z" fill="white" stroke="#263238" stroke-linecap="round" stroke-linejoin="round"/>
<path d="M167.493 210.937C167.173 211.758 165.686 211.922 164.208 211.323C162.729 210.723 161.744 209.573 162.056 208.768C162.368 207.963 163.863 207.783 165.341 208.382C166.82 208.982 167.822 210.123 167.493 210.937Z" fill="white" stroke="#263238" stroke-linecap="round" stroke-linejoin="round"/>
</svg>
