<svg width="579" height="539" viewBox="0 0 579 539" fill="none" xmlns="http://www.w3.org/2000/svg">
<g filter="url(#filter0_d_601_1179)">
<ellipse cx="289.5" cy="461.5" rx="274.5" ry="41.5" fill="white"/>
</g>
<mask id="mask0_601_1179" style="mask-type:luminance" maskUnits="userSpaceOnUse" x="32" y="222" width="74" height="241">
<path d="M105.397 222.018H32.2461V462.161H105.397V222.018Z" fill="white"/>
</mask>
<g mask="url(#mask0_601_1179)">
<path d="M135.882 249.509C132.006 249.053 127.419 255 125.995 258.563C125.882 258.868 124.458 263.94 124.526 263.927H124.616C123.882 264.865 123.102 265.88 122.277 266.996C120.763 269.088 119.068 271.459 117.385 274.186C115.535 277.093 113.841 280.12 112.312 283.252C110.574 286.75 109.122 290.417 107.973 294.208V294.348C107.973 293.08 107.973 289.491 107.905 289.212C107.464 285.344 104.515 278.167 100.741 277.368C100.102 277.255 99.4482 277.295 98.8233 277.485C98.1985 277.674 97.6164 278.01 97.1151 278.47C96.6138 278.929 96.2046 279.503 95.9143 280.152C95.624 280.801 95.4591 281.512 95.4305 282.238C95.2045 285.306 97.1931 288.388 99.1253 290.328C101.306 292.509 107.374 294.639 107.86 294.804C106.759 298.657 105.891 302.588 105.261 306.572C104.888 308.905 104.583 311.263 104.3 313.647C104.3 312.544 104.3 311.555 104.3 311.416C103.86 307.548 100.911 300.358 97.1367 299.572C96.4981 299.459 95.8455 299.498 95.2214 299.687C94.5974 299.876 94.0158 300.211 93.5147 300.669C93.0136 301.127 92.6042 301.699 92.3132 302.347C92.0222 302.995 91.8562 303.704 91.826 304.429C91.6 307.51 93.5887 310.579 95.5209 312.519C97.453 314.459 102.628 316.412 103.984 316.906L103.679 319.645C103.216 324.02 102.764 328.407 102.21 332.681C102.018 334.19 101.769 335.661 101.532 337.144C101.532 336.155 101.532 335.331 101.532 335.204C101.08 331.337 98.1423 324.159 94.3683 323.361C93.7289 323.247 93.0754 323.287 92.4506 323.477C91.8257 323.667 91.2436 324.002 90.7423 324.462C90.241 324.922 89.8319 325.495 89.5416 326.144C89.2513 326.793 89.0864 327.504 89.0577 328.23C88.8317 331.299 90.8204 334.38 92.7526 336.32C94.6847 338.26 99.3513 340.023 100.967 340.606C100.685 342.115 100.402 343.624 100.074 345.07C99.8259 346.046 99.6451 347.01 99.34 347.986C99.0349 348.962 98.7863 349.901 98.5152 350.852C97.9276 352.652 97.3852 354.516 96.7299 356.266C96.3118 357.534 95.8937 358.638 95.4757 359.792C95.6903 358.295 96.0519 355.353 96.0519 355.1C96.0087 351.669 95.184 348.308 93.6565 345.336C93.6677 344.954 93.645 344.572 93.5887 344.195C93.5098 343.472 93.2954 342.776 92.9597 342.153C92.624 341.529 92.1746 340.993 91.6409 340.578C91.1073 340.164 90.5016 339.881 89.8636 339.748C89.2256 339.615 88.5697 339.635 87.9391 339.807C84.1764 340.936 81.7923 348.341 81.6115 352.234C81.6115 352.462 81.7358 354.973 81.8375 356.558C81.6567 355.632 81.4759 354.745 81.2725 353.806C80.8771 351.93 80.4364 350.078 79.9618 348.087C79.7132 347.136 79.4534 346.173 79.1822 345.209C78.911 344.245 78.5833 343.244 78.2782 342.254C77.5325 339.972 76.685 337.69 75.7811 335.432C77.2387 335.039 82.3911 333.556 84.4589 331.78C86.5267 330.005 88.6961 327.101 88.6735 324.02C88.6916 323.295 88.5732 322.574 88.3262 321.903C88.0792 321.233 87.7091 320.629 87.24 320.13C86.7708 319.631 86.2133 319.249 85.6037 319.008C84.994 318.767 84.346 318.673 83.7019 318.732C79.8375 319.201 76.4704 326.112 75.7924 329.942C75.7924 330.183 75.5212 332.985 75.4195 334.519C74.8659 333.163 74.2896 331.806 73.7246 330.449C71.9959 326.543 70.1315 322.65 68.301 318.758L66.6287 315.169C67.1485 315.029 73.3066 313.432 75.6681 311.428C77.7246 309.666 79.9166 306.762 79.894 303.68C79.9119 302.955 79.7935 302.233 79.5466 301.562C79.2997 300.892 78.9298 300.287 78.4609 299.787C77.992 299.287 77.4346 298.903 76.825 298.661C76.2153 298.418 75.5671 298.323 74.9224 298.38C71.0467 298.849 67.6908 305.773 67.0129 309.59C67.0129 309.881 66.6287 313.914 66.5948 314.953C65.3745 312.316 64.1881 309.678 63.1034 307.028C61.6212 303.454 60.3529 299.772 59.3068 296.009C59.5441 296.009 65.9847 294.31 68.3462 292.268C70.4027 290.493 72.5834 287.589 72.5608 284.508C72.5788 283.783 72.4605 283.061 72.2135 282.391C71.9665 281.721 71.5963 281.117 71.1272 280.618C70.6581 280.119 70.1006 279.736 69.491 279.495C68.8813 279.255 68.2333 279.161 67.5892 279.22C63.7248 279.689 60.3689 286.612 59.6797 290.429C59.6797 290.683 59.3859 293.752 59.2955 295.223H59.0808C58.1069 291.409 57.4451 287.505 57.1035 283.557C56.8775 281.388 56.7871 279.296 56.7306 277.216C57.9509 277.051 63.5101 276.215 65.8604 274.68C68.2106 273.146 70.5383 270.546 70.8207 267.478C70.9082 266.759 70.8599 266.028 70.6792 265.331C70.4984 264.635 70.1891 263.989 69.7714 263.435C69.3537 262.881 68.837 262.432 68.2547 262.117C67.6724 261.802 67.0376 261.628 66.3914 261.607C62.5045 261.607 58.482 268.061 57.4198 271.751C57.4198 271.954 56.9679 274.072 56.708 275.631C56.708 274.706 56.708 273.767 56.708 272.88C56.708 269.583 56.9001 266.539 57.0922 263.876C57.2052 262.355 57.3295 260.985 57.465 259.705C58.595 258.83 63.1147 255.266 64.4819 252.718C65.8491 250.169 66.9338 246.644 65.9282 243.765C65.7103 243.083 65.367 242.459 64.9206 241.935C64.4743 241.411 63.9348 240.999 63.3371 240.724C62.7395 240.449 62.097 240.318 61.4514 240.339C60.8057 240.361 60.1713 240.534 59.5893 240.849C55.9057 242.954 54.9905 250.777 55.5668 254.582C55.5668 254.924 56.9227 260.022 56.9792 259.971H57.047C56.9001 261.239 56.7532 262.507 56.6063 263.978C56.369 266.653 56.1317 269.684 56.0639 272.994C55.9519 276.567 56.0274 280.145 56.2899 283.709C56.5627 287.699 57.1527 291.654 58.0526 295.527C58.0526 295.527 58.0526 295.628 58.0526 295.666C57.4311 294.589 55.6346 291.634 55.4764 291.418C53.2165 288.477 47.2618 284.279 43.68 285.978C43.0911 286.279 42.5654 286.716 42.1372 287.26C41.709 287.804 41.3878 288.443 41.1948 289.136C41.0018 289.829 40.9412 290.56 41.017 291.281C41.0929 292.002 41.3034 292.697 41.6348 293.32C42.9568 296.034 46.1545 297.366 48.6968 297.784C51.5894 298.253 57.7362 296.275 58.1769 296.11C59.1804 300.027 60.4147 303.865 61.8717 307.599C62.7079 309.78 63.6118 311.948 64.5497 314.104C63.996 313.191 63.4875 312.379 63.4197 312.265C61.1599 309.323 55.2052 305.126 51.6233 306.825C51.0382 307.132 50.517 307.574 50.0932 308.121C49.6694 308.668 49.3526 309.309 49.1631 310.002C48.9736 310.695 48.9156 311.424 48.9929 312.144C49.0703 312.864 49.2812 313.557 49.6121 314.18C50.9341 316.881 54.1318 318.225 56.6741 318.643C59.2164 319.062 64.5158 317.489 65.8943 317.058L67.0242 319.531C68.7869 323.475 70.5722 327.406 72.2105 331.324C72.7868 332.693 73.3405 334.076 73.8376 335.458C73.3405 334.646 72.9224 333.974 72.8433 333.873C70.5835 330.918 64.6288 326.721 61.0469 328.433C60.459 328.735 59.9344 329.172 59.5074 329.717C59.0803 330.261 58.7604 330.901 58.5685 331.594C58.3766 332.287 58.3169 333.017 58.3935 333.737C58.4702 334.458 58.6812 335.152 59.013 335.775C60.335 338.476 63.5327 339.807 66.0751 340.238C68.6174 340.669 73.397 339.236 75.0354 338.729C75.5438 340.149 76.041 341.595 76.4704 343.003C76.7528 343.979 77.0692 344.892 77.3065 345.881C77.5438 346.87 77.7811 347.834 78.0296 348.785C78.4251 350.662 78.8432 352.589 79.1596 354.415C79.4081 355.683 79.6341 356.951 79.8488 358.13C79.2952 356.748 78.1426 354.073 78.0183 353.857C76.1766 350.56 70.8659 345.399 67.092 346.477C66.4698 346.675 65.8919 347.018 65.3958 347.483C64.8998 347.949 64.4968 348.527 64.2131 349.179C63.9295 349.831 63.7716 350.543 63.7498 351.268C63.7279 351.993 63.8426 352.716 64.0864 353.388C65.0355 356.279 67.9846 358.143 70.4705 358.993C73.2049 359.931 79.25 359.069 80.007 358.993C80.3686 361.022 80.7076 363 80.99 364.864C82.0183 371.356 82.6397 376.796 83.0352 380.613C83.103 381.285 83.1595 381.881 83.216 382.464H71.4987L75.1031 461.616H96.3909L100.007 382.464H89.0916L89.3402 381.906C90.8317 378.394 92.9107 373.372 95.1593 367.21C95.8711 365.27 96.5943 363.177 97.3287 361.022C98.0519 361.186 104.108 362.556 106.843 361.846C109.374 361.212 112.492 359.601 113.622 356.774C113.907 356.123 114.068 355.413 114.093 354.689C114.118 353.964 114.007 353.242 113.767 352.569C113.527 351.896 113.164 351.287 112.701 350.781C112.238 350.276 111.686 349.885 111.08 349.634C107.385 348.24 101.758 352.944 99.6903 356.076C99.566 356.266 98.4474 358.447 97.7581 359.88C98.0519 358.993 98.3457 358.143 98.6395 357.23C99.227 355.43 99.7694 353.603 100.357 351.651C100.606 350.7 100.865 349.736 101.125 348.76C101.385 347.783 101.589 346.756 101.826 345.742C102.323 343.37 102.73 340.948 103.091 338.501C104.492 339.072 109.521 341.037 112.131 340.834C114.741 340.631 117.972 339.566 119.464 337.03C119.836 336.436 120.093 335.761 120.217 335.048C120.341 334.336 120.329 333.602 120.183 332.895C120.037 332.187 119.759 331.523 119.369 330.944C118.978 330.365 118.483 329.885 117.916 329.536C114.458 327.532 108.255 331.222 105.792 333.974C105.645 334.139 104.074 336.345 103.227 337.563C103.442 336.092 103.645 334.621 103.815 333.112C104.289 328.788 104.662 324.388 105.035 320L105.408 315.981C105.905 316.183 111.837 318.656 114.752 318.428C117.34 318.225 120.583 317.16 122.085 314.624C122.458 314.03 122.714 313.355 122.838 312.642C122.962 311.929 122.95 311.195 122.804 310.488C122.658 309.781 122.381 309.116 121.99 308.537C121.6 307.959 121.104 307.479 120.537 307.13C117.08 305.126 110.877 308.816 108.413 311.568C108.232 311.783 105.973 314.941 105.43 315.778C105.713 312.836 106.018 309.894 106.413 307.015C106.944 303.118 107.699 299.264 108.673 295.476C108.899 295.578 115.08 298.19 118.063 298.012C120.65 297.809 123.893 296.744 125.396 294.208C125.768 293.614 126.025 292.939 126.149 292.226C126.273 291.514 126.261 290.78 126.115 290.073C125.969 289.365 125.692 288.701 125.301 288.122C124.91 287.543 124.415 287.063 123.848 286.714C120.39 284.71 114.187 288.4 111.724 291.152C111.566 291.342 109.848 293.752 109.046 294.956L108.854 294.842C109.914 291.059 111.28 287.391 112.933 283.886C113.814 281.933 114.763 280.082 115.713 278.408C116.843 279.03 121.893 281.794 124.605 281.908C127.317 282.022 130.537 281.375 132.277 278.992C132.698 278.446 133.012 277.809 133.2 277.12C133.389 276.43 133.447 275.705 133.372 274.989C133.296 274.273 133.089 273.582 132.762 272.962C132.435 272.341 131.997 271.803 131.475 271.383C128.232 268.961 121.701 271.878 119.046 274.3C118.899 274.439 117.52 275.961 116.537 277.102C116.978 276.329 117.419 275.517 117.859 274.782C119.487 272.03 121.125 269.621 122.594 267.503C123.441 266.311 124.221 265.246 124.967 264.257C126.334 264.257 131.848 264.041 134.255 262.773C136.661 261.505 139.294 259.223 139.904 256.205C140.11 255.465 140.164 254.682 140.064 253.915C139.964 253.148 139.711 252.416 139.325 251.773C138.939 251.13 138.429 250.593 137.833 250.201C137.237 249.81 136.57 249.573 135.882 249.509ZM93.035 366.17C90.6961 372.206 88.5153 377.138 86.9899 380.562C86.6849 381.247 86.4024 381.83 86.1425 382.426H85.8374C85.7583 381.754 85.6792 381.031 85.5775 380.207C85.103 376.403 84.3572 370.874 83.2047 364.357C82.8431 362.29 82.425 360.096 81.9731 357.839C83.7937 357.021 85.5707 356.085 87.295 355.036C89.2837 357.458 94.3909 360.286 95.0463 360.654C94.4022 362.543 93.7469 364.395 93.035 366.17Z" fill="#049F85"/>
<path d="M46.3805 275.555C49.1714 276.924 56.0074 276.747 56.0187 276.747C56.03 276.747 54.5498 271.674 54.4143 271.421C52.9115 267.908 48.1771 262.088 44.3127 262.684C43.6762 262.802 43.0688 263.069 42.5299 263.467C41.991 263.865 41.5326 264.386 41.1843 264.996C40.836 265.605 40.6057 266.29 40.5081 267.006C40.4105 267.722 40.4479 268.453 40.6179 269.151C41.2619 272.156 44.0303 274.388 46.3805 275.555Z" fill="#049F85"/>
<path opacity="0.3" d="M46.3805 275.555C49.1714 276.924 56.0074 276.747 56.0187 276.747C56.03 276.747 54.5498 271.674 54.4143 271.421C52.9115 267.908 48.1771 262.088 44.3127 262.684C43.6762 262.802 43.0688 263.069 42.5299 263.467C41.991 263.865 41.5326 264.386 41.1843 264.996C40.836 265.605 40.6057 266.29 40.5081 267.006C40.4105 267.722 40.4479 268.453 40.6179 269.151C41.2619 272.156 44.0303 274.388 46.3805 275.555Z" fill="white"/>
<path opacity="0.3" d="M58.2221 296.085C59.2256 300.002 60.4599 303.84 61.9169 307.573C62.7531 309.754 63.657 311.923 64.5949 314.078C64.0412 313.165 63.5327 312.354 63.4649 312.24C61.2051 309.298 55.2504 305.101 51.6685 306.8C51.0764 307.102 50.5478 307.54 50.1172 308.087C49.6865 308.634 49.3636 309.277 49.1695 309.974C48.9754 310.67 48.9145 311.405 48.9908 312.13C49.067 312.855 49.2787 313.553 49.6121 314.18C50.9341 316.881 54.1318 318.225 56.6741 318.643C59.2164 319.062 64.5158 317.489 65.8943 317.058L67.0242 319.531C68.7869 323.475 70.5722 327.406 72.2105 331.324C72.7868 332.693 73.3405 334.076 73.8376 335.458C73.3405 334.646 72.9224 333.974 72.8433 333.873C70.5835 330.918 64.6288 326.721 61.0469 328.433C60.459 328.735 59.9344 329.172 59.5074 329.717C59.0803 330.261 58.7604 330.901 58.5685 331.594C58.3766 332.287 58.3169 333.017 58.3936 333.737C58.4702 334.458 58.6812 335.152 59.013 335.775C60.335 338.476 63.5327 339.807 66.0751 340.238C68.6174 340.669 73.397 339.236 75.0354 338.729C75.5438 340.149 76.041 341.595 76.4704 343.003C76.7528 343.979 77.0692 344.892 77.3065 345.881C77.5438 346.87 77.7811 347.834 78.0296 348.785C78.4251 350.662 78.8432 352.589 79.1596 354.415C79.4081 355.683 79.6341 356.951 79.8488 358.13C79.2952 356.748 78.1426 354.073 78.0184 353.857C76.1766 350.56 70.8659 345.399 67.092 346.477C66.4698 346.675 65.8919 347.018 65.3958 347.483C64.8998 347.949 64.4968 348.527 64.2131 349.179C63.9295 349.831 63.7716 350.543 63.7498 351.268C63.7279 351.993 63.8426 352.716 64.0864 353.388C65.0355 356.279 67.9846 358.143 70.4705 358.993C73.2049 359.931 79.25 359.069 80.007 358.993C80.3686 361.022 80.7076 363 80.99 364.864C82.0183 371.356 82.6397 376.796 83.0352 380.613C83.103 381.285 83.1595 381.881 83.216 382.464H71.4987L75.1031 461.616H96.3909L100.007 382.464H89.0916L89.3402 381.906C90.8317 378.394 92.9107 373.372 95.1593 367.21C95.8711 365.27 96.5943 363.177 97.3287 361.022C98.0519 361.186 104.108 362.556 106.843 361.846C109.374 361.212 112.492 359.601 113.622 356.774C113.907 356.123 114.068 355.413 114.093 354.689C114.118 353.964 114.007 353.242 113.767 352.569C113.527 351.896 113.164 351.287 112.701 350.781C112.238 350.276 111.686 349.885 111.08 349.634C107.385 348.24 101.758 352.944 99.6903 356.076C99.566 356.266 98.4474 358.447 97.7581 359.88C98.0519 358.993 98.3457 358.143 98.6395 357.23C99.227 355.43 99.7694 353.603 100.357 351.651C100.606 350.7 100.865 349.736 101.125 348.76C101.385 347.783 101.589 346.756 101.826 345.742C102.323 343.37 102.73 340.948 103.091 338.501C104.492 339.072 109.521 341.037 112.131 340.834C114.741 340.631 117.972 339.566 119.464 337.03C119.836 336.436 120.093 335.761 120.217 335.048C120.341 334.336 120.329 333.602 120.183 332.895C120.037 332.187 119.759 331.523 119.369 330.944C118.978 330.365 118.483 329.885 117.916 329.536C114.458 327.532 108.255 331.222 105.792 333.974C105.645 334.139 104.074 336.345 103.227 337.563C103.442 336.092 103.645 334.621 103.815 333.112C104.289 328.788 104.662 324.388 105.035 320L105.408 315.981C105.905 316.183 111.837 318.656 114.752 318.428C117.34 318.225 120.583 317.16 122.085 314.624C122.458 314.03 122.714 313.355 122.838 312.642C122.962 311.929 122.95 311.195 122.804 310.488C122.658 309.781 122.381 309.116 121.99 308.537C121.6 307.959 121.104 307.479 120.537 307.13C117.08 305.126 110.877 308.816 108.413 311.568C108.233 311.783 105.973 314.941 105.43 315.778C105.713 312.836 106.018 309.894 106.413 307.015C106.944 303.118 107.699 299.264 108.673 295.476C108.899 295.578 115.08 298.19 118.063 298.012C120.65 297.809 123.893 296.744 125.396 294.208C125.768 293.614 126.025 292.939 126.149 292.226C126.273 291.514 126.261 290.78 126.115 290.073C125.969 289.365 125.692 288.701 125.301 288.122C124.91 287.543 124.415 287.063 123.848 286.714C120.39 284.71 114.187 288.4 111.724 291.152C111.566 291.342 109.848 293.752 109.046 294.956L108.854 294.842C109.914 291.059 111.28 287.391 112.933 283.886C113.814 281.933 114.763 280.082 115.713 278.408C116.843 279.03 121.893 281.794 124.605 281.908C127.317 282.022 130.537 281.375 132.277 278.992C132.698 278.446 133.012 277.809 133.2 277.12C133.389 276.43 133.447 275.705 133.372 274.989C133.296 274.273 133.089 273.582 132.762 272.962C132.435 272.341 131.997 271.803 131.475 271.383C128.232 268.961 121.701 271.878 119.046 274.3C118.899 274.439 117.52 275.961 116.537 277.102C116.978 276.329 117.419 275.517 117.859 274.782C119.487 272.03 121.125 269.621 122.594 267.503C123.441 266.311 124.221 265.246 124.967 264.257C126.334 264.257 131.848 264.041 134.255 262.773C136.661 261.505 139.294 259.223 139.904 256.205C140.056 255.502 140.074 254.771 139.958 254.06C139.842 253.348 139.595 252.672 139.232 252.075C138.869 251.477 138.398 250.972 137.85 250.591C137.302 250.211 136.69 249.963 136.051 249.864C132.176 249.408 127.588 255.355 126.164 258.918C126.051 259.223 124.628 264.295 124.695 264.282H124.786C124.051 265.221 123.272 266.235 122.447 267.351C120.933 269.443 119.238 271.814 117.554 274.541C115.705 277.448 114.011 280.475 112.481 283.607C110.743 287.105 109.291 290.772 108.142 294.563V294.703C108.142 293.435 108.142 289.846 108.074 289.567C107.634 285.7 104.685 278.522 100.911 277.723C100.271 277.61 99.6177 277.65 98.9928 277.84C98.368 278.029 97.7859 278.365 97.2846 278.825C96.7833 279.284 96.3741 279.858 96.0838 280.507C95.7935 281.156 95.6286 281.867 95.6 282.593C95.374 285.661 97.3626 288.743 99.2948 290.683C101.476 292.864 107.543 294.994 108.029 295.159C106.885 298.891 105.96 302.704 105.261 306.572C104.888 308.905 104.583 311.263 104.3 313.647C104.3 312.544 104.3 311.555 104.3 311.416C103.86 307.548 100.911 300.358 97.1367 299.572C96.4981 299.459 95.8455 299.498 95.2215 299.687C94.5974 299.876 94.0158 300.211 93.5147 300.669C93.0136 301.127 92.6042 301.699 92.3132 302.347C92.0222 302.995 91.8562 303.704 91.826 304.429C91.6 307.51 93.5887 310.579 95.5209 312.519C97.453 314.459 102.628 316.412 103.984 316.906L103.679 319.645C103.216 324.02 102.764 328.407 102.21 332.681C102.018 334.19 101.769 335.661 101.532 337.144C101.532 336.155 101.532 335.331 101.532 335.204C101.08 331.337 98.1423 324.159 94.3683 323.361C93.7289 323.247 93.0754 323.287 92.4506 323.477C91.8257 323.667 91.2436 324.002 90.7423 324.462C90.241 324.922 89.8319 325.495 89.5416 326.144C89.2513 326.793 89.0864 327.504 89.0577 328.23C88.8317 331.299 90.8204 334.38 92.7526 336.32C94.6847 338.26 99.3513 340.023 100.967 340.606C100.685 342.115 100.402 343.624 100.074 345.07C99.8259 346.046 99.6451 347.01 99.34 347.986C99.0349 348.962 98.7863 349.901 98.5152 350.852C97.9276 352.652 97.3852 354.516 96.7299 356.266C96.3118 357.534 95.8937 358.638 95.4757 359.792C95.6904 358.295 96.0519 355.353 96.0519 355.1C96.0087 351.669 95.1841 348.308 93.6565 345.336C93.6677 344.954 93.645 344.572 93.5887 344.195C93.5098 343.472 93.2954 342.776 92.9597 342.153C92.624 341.529 92.1746 340.993 91.6409 340.578C91.1073 340.164 90.5016 339.881 89.8636 339.748C89.2256 339.615 88.5697 339.635 87.9391 339.807C84.1764 340.936 81.7923 348.341 81.6115 352.234C81.6115 352.462 81.7358 354.973 81.8375 356.558C81.6567 355.632 81.4759 354.745 81.2725 353.806C80.8771 351.93 80.4364 350.078 79.9618 348.087C79.7132 347.136 79.4534 346.173 79.1822 345.209C78.911 344.245 78.5833 343.244 78.2782 342.254C77.5325 339.972 76.685 337.69 75.7811 335.432C77.2387 335.039 82.3912 333.556 84.4589 331.78C86.5267 330.005 88.6961 327.101 88.6735 324.02C88.6916 323.295 88.5732 322.574 88.3262 321.903C88.0792 321.233 87.7091 320.629 87.24 320.13C86.7709 319.631 86.2133 319.249 85.6037 319.008C84.994 318.767 84.346 318.673 83.7019 318.732C79.8375 319.201 76.4704 326.112 75.7924 329.942C75.7924 330.183 75.5212 332.985 75.4195 334.519C74.8659 333.163 74.2896 331.806 73.7246 330.449C71.9959 326.543 70.1315 322.65 68.301 318.758L66.6287 315.169C67.1485 315.029 73.3066 313.432 75.6681 311.428C77.7246 309.666 79.9166 306.762 79.894 303.68C79.9119 302.955 79.7935 302.233 79.5466 301.562C79.2997 300.892 78.9298 300.287 78.4609 299.787C77.992 299.287 77.4346 298.903 76.825 298.661C76.2153 298.418 75.5671 298.323 74.9224 298.38C71.0467 298.849 67.6908 305.773 67.0129 309.59C67.0129 309.881 66.6287 313.914 66.5948 314.953C65.3745 312.316 64.1881 309.678 63.1034 307.028C61.6212 303.454 60.3529 299.772 59.3068 296.009C59.5441 296.009 65.9847 294.31 68.3462 292.268C70.4027 290.493 72.5834 287.589 72.5608 284.508C72.5788 283.783 72.4605 283.061 72.2135 282.391C71.9665 281.721 71.5963 281.117 71.1272 280.618C70.6581 280.119 70.1006 279.736 69.491 279.495C68.8813 279.255 68.2333 279.161 67.5892 279.22C63.7248 279.689 60.3689 286.612 59.6797 290.429C59.6797 290.683 59.3859 293.752 59.2955 295.223H59.0808C58.1069 291.409 57.4451 287.505 57.1035 283.557C56.8775 281.388 56.7871 279.296 56.7306 277.216C57.9509 277.051 63.5101 276.215 65.8604 274.68C68.2106 273.146 70.5383 270.546 70.8207 267.478C70.9082 266.759 70.8599 266.028 70.6792 265.331C70.4984 264.635 70.1891 263.989 69.7714 263.435C69.3537 262.881 68.837 262.432 68.2547 262.117C67.6724 261.802 67.0376 261.628 66.3914 261.607C62.5045 261.607 58.482 268.061 57.4198 271.751C57.4198 271.954 56.9679 274.072 56.708 275.631C56.708 274.706 56.708 273.767 56.708 272.88C56.708 269.583 56.9001 266.539 57.0922 263.876C57.2052 262.355 57.3295 260.985 57.465 259.705C58.595 258.83 63.1147 255.266 64.4819 252.718C65.8491 250.169 66.9338 246.644 65.9282 243.765C65.7103 243.083 65.367 242.459 64.9206 241.935C64.4743 241.411 63.9348 240.999 63.3371 240.724C62.7395 240.449 62.097 240.318 61.4514 240.339C60.8057 240.361 60.1713 240.534 59.5893 240.849C55.9057 242.954 54.9905 250.777 55.5668 254.582C55.5668 254.924 56.9227 260.022 56.9792 259.971H57.047C56.9001 261.239 56.7532 262.507 56.6063 263.978C56.369 266.653 56.1317 269.684 56.0639 272.994C55.9519 276.567 56.0274 280.145 56.2899 283.709C56.5628 287.699 57.1527 291.654 58.0526 295.527C58.0526 295.527 58.0526 295.628 58.0526 295.666C57.4311 294.589 55.6346 291.634 55.4764 291.418C53.2165 288.477 47.2618 284.279 43.68 285.978C43.0911 286.279 42.5654 286.716 42.1372 287.26C41.709 287.804 41.3878 288.443 41.1948 289.136C41.0018 289.829 40.9412 290.56 41.017 291.281C41.0929 292.002 41.3034 292.697 41.6348 293.32C42.9568 296.034 46.1545 297.366 48.6968 297.784C51.6346 298.228 57.7362 296.25 58.2221 296.085ZM87.3402 355.011C89.3289 357.433 94.4361 360.261 95.0915 360.628C94.4022 362.543 93.713 364.433 93.035 366.145C90.6961 372.18 88.5153 377.113 86.9899 380.537C86.6849 381.222 86.4024 381.805 86.1425 382.401H85.8374C85.7583 381.729 85.6792 381.006 85.5775 380.182C85.103 376.378 84.3572 370.849 83.2047 364.331C82.8431 362.264 82.4251 360.071 81.9731 357.813C83.8091 356.997 85.6012 356.061 87.3402 355.011Z" fill="white"/>
</g>
<path d="M117.736 169.877H467.108C470.243 169.877 473.249 171.274 475.466 173.762C477.682 176.249 478.927 179.623 478.927 183.141V441.594H105.917V183.141C105.917 179.623 107.162 176.249 109.379 173.762C111.595 171.274 114.601 169.877 117.736 169.877Z" stroke="#263238" stroke-linecap="round" stroke-linejoin="round"/>
<path d="M463.786 191.104H121.046V408.473H463.786V191.104Z" fill="white" stroke="#263238" stroke-linecap="round" stroke-linejoin="round"/>
<path d="M421.448 428.508H165.103V442.685H421.448V428.508Z" fill="#263238" stroke="#263238" stroke-linecap="round" stroke-linejoin="round"/>
<path d="M421.448 435.33H165.103V442.685H421.448V435.33Z" fill="white" stroke="#263238" stroke-linecap="round" stroke-linejoin="round"/>
<path d="M75.748 451.13C75.748 451.13 79.9627 456.912 92.5952 461.629H493.955C493.955 461.629 503.311 459.004 507.514 451.662L75.748 451.13Z" fill="#263238" stroke="#263238" stroke-linecap="round" stroke-linejoin="round"/>
<path d="M506.294 440.745H77.0359C75.8565 440.745 74.9004 441.818 74.9004 443.142V449.381C74.9004 450.704 75.8565 451.777 77.0359 451.777H506.294C507.473 451.777 508.429 450.704 508.429 449.381V443.142C508.429 441.818 507.473 440.745 506.294 440.745Z" fill="white" stroke="#263238" stroke-linecap="round" stroke-linejoin="round"/>
<path d="M295.607 178.093C295.607 177.365 295.415 176.654 295.054 176.049C294.694 175.444 294.181 174.973 293.582 174.695C292.982 174.417 292.323 174.345 291.687 174.488C291.051 174.631 290.467 174.982 290.009 175.498C289.552 176.013 289.24 176.67 289.115 177.384C288.99 178.098 289.057 178.838 289.306 179.509C289.556 180.181 289.978 180.755 290.518 181.157C291.059 181.56 291.693 181.773 292.342 181.771C292.772 181.771 293.197 181.675 293.594 181.491C293.991 181.306 294.351 181.034 294.655 180.693C294.958 180.351 295.199 179.946 295.362 179.5C295.525 179.054 295.609 178.576 295.607 178.093Z" fill="white" stroke="#263238" stroke-linecap="round" stroke-linejoin="round"/>
<path d="M109.431 246.34C109.184 246.34 108.947 246.231 108.772 246.036C108.596 245.841 108.496 245.577 108.493 245.3V214.867C108.496 214.59 108.596 214.326 108.772 214.131C108.947 213.936 109.184 213.827 109.431 213.827C109.678 213.827 109.915 213.936 110.09 214.131C110.266 214.326 110.366 214.59 110.369 214.867V245.3C110.366 245.577 110.266 245.841 110.09 246.036C109.915 246.231 109.678 246.34 109.431 246.34Z" fill="#263238" stroke="white" stroke-width="0.691688" stroke-miterlimit="10"/>
<path d="M370.714 191.104V408.397" stroke="#263238" stroke-linecap="round" stroke-linejoin="round"/>
<path d="M375.517 191.104V408.397" stroke="#263238" stroke-linecap="round" stroke-linejoin="round"/>
<path d="M121.238 394.042H370.714" stroke="#263238" stroke-linecap="round" stroke-linejoin="round"/>
<path d="M132.233 366.983H216.616" stroke="#263238" stroke-linecap="round" stroke-linejoin="round"/>
<path d="M132.233 357.967H216.616" stroke="#263238" stroke-linecap="round" stroke-linejoin="round"/>
<path d="M132.233 348.951H216.616" stroke="#263238" stroke-linecap="round" stroke-linejoin="round"/>
<path d="M132.233 339.935H216.616" stroke="#263238" stroke-linecap="round" stroke-linejoin="round"/>
<path d="M132.233 330.906H216.616" stroke="#263238" stroke-linecap="round" stroke-linejoin="round"/>
<path d="M132.233 304.606H216.616" stroke="#263238" stroke-linecap="round" stroke-linejoin="round"/>
<path d="M132.233 295.591H216.616" stroke="#263238" stroke-linecap="round" stroke-linejoin="round"/>
<path d="M132.233 286.575H216.616" stroke="#263238" stroke-linecap="round" stroke-linejoin="round"/>
<path d="M132.233 277.56H216.616" stroke="#263238" stroke-linecap="round" stroke-linejoin="round"/>
<path d="M132.233 268.531H216.616" stroke="#263238" stroke-linecap="round" stroke-linejoin="round"/>
<path d="M421.81 211.697C421.51 211.697 421.223 211.831 421.011 212.069C420.799 212.306 420.68 212.629 420.68 212.965L420.612 214.614H402.375L401.302 243.31H436.329L437.132 221.563L437.403 214.614L437.516 211.748L421.81 211.697Z" fill="#049F85" stroke="#263238" stroke-linecap="round" stroke-linejoin="round"/>
<path d="M436.329 243.26L436.171 216.567H402.511L402.782 242.943L436.329 243.26Z" fill="white" stroke="#263238" stroke-linecap="round" stroke-linejoin="round"/>
<path d="M436.329 243.26L434.792 216.567H401.132L401.403 242.943L436.329 243.26Z" fill="white" stroke="#263238" stroke-linecap="round" stroke-linejoin="round"/>
<path d="M401.302 243.26L396.624 215.743H431.866L436.33 243.26H401.302Z" fill="#049F85" stroke="#263238" stroke-linecap="round" stroke-linejoin="round"/>
<path d="M421.81 260.187C421.52 260.186 421.241 260.311 421.03 260.535C420.82 260.759 420.694 261.066 420.68 261.391L420.612 263.052H402.375L401.302 291.748H436.329L437.132 269.989L437.403 263.052L437.516 260.187H421.81Z" fill="#049F85" stroke="#263238" stroke-linecap="round" stroke-linejoin="round"/>
<path d="M436.329 291.749L436.171 265.057H402.511L402.782 291.419L436.329 291.749Z" fill="white" stroke="#263238" stroke-linecap="round" stroke-linejoin="round"/>
<path d="M436.329 291.749L434.792 265.057H401.132L401.403 291.419L436.329 291.749Z" fill="white" stroke="#263238" stroke-linecap="round" stroke-linejoin="round"/>
<path d="M401.302 291.75L396.624 264.221H431.866L436.33 291.75H401.302Z" fill="#049F85" stroke="#263238" stroke-linecap="round" stroke-linejoin="round"/>
<path d="M421.81 308.665C421.51 308.665 421.223 308.799 421.011 309.036C420.799 309.274 420.68 309.597 420.68 309.933L420.612 311.582H402.375L401.302 340.277H436.329L437.132 318.53L437.403 311.582L437.516 308.716L421.81 308.665Z" fill="#049F85" stroke="#263238" stroke-linecap="round" stroke-linejoin="round"/>
<path d="M436.329 340.226L436.171 313.533H402.511L402.782 339.909L436.329 340.226Z" fill="white" stroke="#263238" stroke-linecap="round" stroke-linejoin="round"/>
<path d="M436.329 340.226L434.792 313.533H401.132L401.403 339.909L436.329 340.226Z" fill="white" stroke="#263238" stroke-linecap="round" stroke-linejoin="round"/>
<path d="M401.302 340.226L396.624 312.696H431.866L436.33 340.226H401.302Z" fill="#049F85" stroke="#263238" stroke-linecap="round" stroke-linejoin="round"/>
<path d="M421.81 357.154C421.52 357.154 421.241 357.279 421.03 357.503C420.82 357.727 420.694 358.034 420.68 358.359L420.612 360.02H402.375L401.302 388.716H436.329L437.132 366.956L437.403 360.02L437.516 357.154H421.81Z" fill="#049F85" stroke="#263238" stroke-linecap="round" stroke-linejoin="round"/>
<path d="M436.329 388.717L436.171 362.024H402.511L402.782 388.387L436.329 388.717Z" fill="white" stroke="#263238" stroke-linecap="round" stroke-linejoin="round"/>
<path d="M436.329 388.717L434.792 362.024H401.132L401.403 388.387L436.329 388.717Z" fill="white" stroke="#263238" stroke-linecap="round" stroke-linejoin="round"/>
<path d="M401.302 388.716L396.624 361.187H431.866L436.33 388.716H401.302Z" fill="#049F85" stroke="#263238" stroke-linecap="round" stroke-linejoin="round"/>
<mask id="mask1_601_1179" style="mask-type:luminance" maskUnits="userSpaceOnUse" x="240" y="186" width="120" height="255">
<path d="M359.065 186.756H240.83V440.289H359.065V186.756Z" fill="white"/>
</mask>
<g mask="url(#mask1_601_1179)">
<path d="M325.632 435.091C327.169 437.576 328.004 440.523 328.027 443.548C327.801 447.91 337.406 452.666 340.038 450.865C342.671 449.064 343.123 444.195 341.168 441.114C339.346 438.463 337.4 435.924 335.338 433.505C334.762 432.732 334.762 432.098 332.931 432.098C331.101 432.098 326.321 432.009 325.632 435.091Z" fill="#263238" stroke="#263238" stroke-linecap="round" stroke-linejoin="round"/>
<path d="M341.687 442.114C341.729 443.201 341.634 444.29 341.405 445.347C340.829 447.655 340.275 447.782 340.275 447.782L339.247 445.981L337.077 446.628L336.964 448.936C335.727 449.012 334.487 448.84 333.303 448.429C332.038 447.782 329.529 446.248 329.066 443.166C328.574 440.902 327.725 438.754 326.558 436.826C327.563 438.884 328.074 441.2 328.038 443.547C327.812 447.909 337.416 452.664 340.049 450.863C342.399 449.253 342.998 445.157 341.687 442.114Z" fill="white" stroke="#263238" stroke-linecap="round" stroke-linejoin="round"/>
<path d="M301.507 431.882C299.395 433.943 297.096 435.749 294.648 437.271C290.998 439.452 286.738 438.539 286.196 440.606C285.654 442.673 288.592 444.575 295.235 445.602C301.879 446.629 303.009 444.828 305.868 443.674C308.727 442.52 313.778 443.421 314.907 442.52C316.037 441.62 315.02 438.158 314.568 434.912C314.116 431.666 313.879 430.816 313.879 430.816C311.89 431.896 309.663 432.297 307.473 431.97C305.495 431.655 303.49 431.625 301.507 431.882Z" fill="#263238" stroke="#263238" stroke-linecap="round" stroke-linejoin="round"/>
<path d="M305.858 443.674C308.716 442.52 313.767 443.421 314.897 442.52C315.665 441.924 315.451 440.149 315.089 438.082C313.926 438.93 312.668 439.603 311.349 440.086C308.29 440.884 305.272 441.87 302.31 443.04C298.939 444.342 295.248 444.11 292.027 442.393C289.169 441.125 290.31 441.239 290.649 439.959C290.714 439.748 290.733 439.522 290.703 439.301C290.674 439.08 290.597 438.871 290.479 438.691C288.31 439.135 286.547 439.274 286.197 440.555C285.621 442.596 288.593 444.524 295.236 445.551C301.88 446.578 302.999 444.79 305.858 443.674Z" fill="white" stroke="#263238" stroke-linecap="round" stroke-linejoin="round"/>
<path d="M294.999 303.467C294.999 303.467 294.197 312.064 294.197 330.92C294.156 345.243 294.881 359.555 296.366 373.78C297.282 381.604 297.496 381.731 297.621 382.758C297.745 383.785 301.971 412.899 301.971 414.7V417.135C301.971 417.135 299.711 419.671 300.479 422.017C301.248 424.363 302.66 429.067 302.31 429.194C301.959 429.321 300.717 429.967 300.717 431.121V432.275C302.207 434.132 304.222 435.354 306.423 435.737C310.423 436.637 311.688 437.284 312.716 435.61C314.026 433.649 314.995 431.429 315.575 429.067C316.027 426.632 316.603 425.478 315.225 423.044C313.846 420.609 313.394 419.569 313.394 418.289C313.394 417.008 314.999 395.717 313.971 388.401C312.942 381.084 312.027 376.316 312.027 372.512C312.027 368.708 313.055 335.561 313.055 335.561C313.055 335.561 318.886 376.481 319.575 385.332C320.264 394.183 322.434 416.64 322.196 418.048C321.959 419.455 320.253 421.636 321.066 423.944C321.907 425.94 322.937 427.827 324.14 429.574C323.898 429.802 323.732 430.117 323.67 430.465C323.609 430.813 323.655 431.174 323.801 431.489C324.264 432.757 325.179 434.951 325.631 435.09C326.083 435.23 335.349 433.543 335.349 433.543C335.349 433.543 338.659 427.127 337.609 423.792C336.558 420.457 335.552 418.923 335.552 418.542C336.118 415.105 336.496 411.633 336.682 408.144C336.795 403.529 333.032 357.993 333.032 357.993C333.032 357.993 331.428 316.807 331.428 316.426C331.428 316.046 331.089 309.49 331.089 309.49C331.089 309.49 318.965 318.481 308.57 314.626C298.174 310.771 294.999 303.467 294.999 303.467Z" fill="#049F85" stroke="#263238" stroke-linecap="round" stroke-linejoin="round"/>
<path d="M313.056 335.535L311.688 330.666" stroke="#263238" stroke-linecap="round" stroke-linejoin="round"/>
<path d="M313.394 331.946L308.479 328.611" stroke="#263238" stroke-linecap="round" stroke-linejoin="round"/>
<path d="M312.298 233.369C312.298 233.369 303.97 232.013 302.648 233.002C301.326 233.991 296.626 242.22 294.321 245.682C292.016 249.144 276.558 263.777 276.558 263.777L263.056 234.612C263.497 232.425 263.788 230.204 263.926 227.968C263.926 225.761 262.943 224.404 262.943 222.312C262.943 220.22 263.824 217.138 263.383 216.403C262.943 215.667 261.734 216.53 260.965 218.001C260.197 219.472 260.31 223.542 260.31 223.542C260.31 223.542 253.44 214.032 252.853 212.84C252.694 212.51 251.542 212.586 251.542 213.575C251.542 214.564 255.813 223.542 255.813 223.542C255.813 223.542 255.372 224.278 254.943 224.278C254.514 224.278 248.469 216.162 248.163 216.035C247.858 215.908 246.853 216.162 247.395 217.506C247.937 218.85 252.548 225.761 252.548 225.761C251.661 225.787 250.78 225.91 249.915 226.129C249.789 226.22 249.684 226.343 249.609 226.488C249.533 226.632 249.488 226.795 249.478 226.963C249.469 227.13 249.494 227.298 249.552 227.452C249.61 227.607 249.699 227.744 249.813 227.853C250.199 228.258 250.642 228.588 251.124 228.83C251.124 228.83 251.237 229.578 251.339 230.808C251.281 231.555 251.391 232.307 251.66 232.994C251.928 233.681 252.346 234.281 252.875 234.739C253.994 235.904 255.297 236.825 256.717 237.453C257.259 237.567 269.011 276.255 270.875 279.704C272.739 283.153 273.621 283.267 275.7 282.646C277.779 282.024 298.264 264.728 298.264 264.728C298.264 264.728 297.394 296.353 296.4 298.572C295.406 300.792 294.321 300.792 294.321 302.262C294.376 303.542 294.524 304.814 294.761 306.067C294.761 306.067 300.242 316.401 311.428 316.769C322.614 317.137 332.806 312.09 332.806 309.757C332.725 308.287 332.467 306.837 332.038 305.445C332.038 304.963 333.36 302.618 333.168 301.147C332.975 299.676 332.185 299.295 332.399 297.089C332.614 294.882 342.049 263.245 342.489 253.519C342.93 243.793 343.032 243.057 340.953 241.345C338.874 239.634 331.19 238.137 331.19 238.137L318.253 234.447L313.1 233.953L312.298 233.369Z" fill="#D9D9D9" stroke="#263238" stroke-linecap="round" stroke-linejoin="round"/>
<path d="M342.456 253.543C342.897 243.83 342.998 243.082 340.919 241.37C338.84 239.658 331.157 238.162 331.157 238.162L318.219 234.472L313.067 233.977L312.298 233.368C312.298 233.368 303.971 232.012 302.649 233.001C301.327 233.99 296.626 242.219 294.321 245.681C292.016 249.143 276.559 263.776 276.559 263.776L272.039 253.467L263.779 259.655C267.169 269.698 270.129 278.308 270.853 279.652C272.717 283.089 273.598 283.215 275.677 282.594C277.756 281.973 298.265 264.727 298.265 264.727C298.265 264.727 297.395 296.352 296.4 298.571C295.406 300.791 294.321 300.791 294.321 302.261C294.377 303.541 294.524 304.813 294.762 306.066C294.762 306.066 300.242 316.4 311.428 316.768C322.614 317.136 332.806 312.089 332.806 309.756C332.725 308.286 332.467 306.836 332.038 305.444C332.038 304.962 333.36 302.617 333.168 301.146C332.976 299.675 332.185 299.294 332.4 297.088C332.614 294.881 342.015 263.269 342.456 253.543Z" fill="#263238" stroke="#263238" stroke-linecap="round" stroke-linejoin="round"/>
<path d="M298.322 250.195L298.265 264.74L295.52 250.335" stroke="white" stroke-width="0.75" stroke-linecap="round" stroke-linejoin="round"/>
<path d="M296.004 306.927C307.058 310.3 318.758 309.898 329.608 305.773" stroke="white" stroke-width="0.75" stroke-linecap="round" stroke-linejoin="round"/>
<path d="M321.032 312.647C322.162 312.495 323.224 312.304 324.422 312.063" stroke="white" stroke-width="0.75" stroke-linecap="round" stroke-linejoin="round"/>
<path d="M298.999 308.603C298.999 308.603 305.044 313.18 316.027 313.028" stroke="white" stroke-width="0.75" stroke-linecap="round" stroke-linejoin="round"/>
<path d="M260.31 223.477C260.253 224.349 260.017 225.196 259.621 225.949C258.954 227.217 258.118 227.661 258.005 229.88C257.964 230.501 258.051 231.125 258.261 231.701C258.471 232.278 258.797 232.792 259.214 233.203" stroke="#263238" stroke-linecap="round" stroke-linejoin="round"/>
<path d="M253.294 227.041C253.294 227.041 248.91 223.604 248.028 224.213C247.788 224.401 247.586 224.645 247.437 224.928C247.287 225.211 247.194 225.526 247.163 225.853C247.132 226.181 247.164 226.511 247.257 226.823C247.349 227.135 247.501 227.421 247.701 227.662C248.695 228.651 252.966 229.387 253.734 228.93C254.503 228.474 253.994 227.548 253.294 227.041Z" fill="#D9D9D9" stroke="#263238" stroke-linecap="round" stroke-linejoin="round"/>
<path d="M254.65 230.857C254.65 230.857 251.588 230.122 250.842 229.982C250.096 229.843 249.655 230.312 249.712 231.187C249.768 232.062 250.525 232.607 251.712 232.658C252.898 232.709 255.531 233.203 255.644 231.922C255.678 231.77 255.675 231.611 255.636 231.46C255.597 231.31 255.524 231.174 255.423 231.065C255.322 230.957 255.197 230.881 255.061 230.844C254.925 230.808 254.783 230.812 254.65 230.857Z" fill="#D9D9D9" stroke="#263238" stroke-linecap="round" stroke-linejoin="round"/>
<path d="M318.252 226.204C318.252 226.204 324.365 225.989 326.444 224.873" stroke="#263238" stroke-linecap="round" stroke-linejoin="round"/>
<path d="M332.377 248.243C332.377 248.243 319.948 262.483 315.914 267.872C313.114 271.523 310.057 274.916 306.773 278.017L279.146 257.411C278.107 255.674 277.153 253.875 276.287 252.022C275.485 250.094 274.231 249.587 273.203 246.632C272.174 243.678 271.135 241.763 270.344 243.817C269.553 245.872 269.881 246.506 270.344 247.533C270.807 248.56 272.4 251.641 272.4 251.641C272.4 251.641 265.542 248.56 263.135 247.406C260.728 246.252 258.22 245.871 258.107 246.899C257.994 247.926 258.457 247.786 259.598 248.306C260.74 248.826 267.824 253.175 267.824 253.175L267.135 253.569C267.135 253.569 257.768 251.641 256.853 251.514C255.937 251.387 256.163 252.782 256.853 253.175C257.542 253.569 261.079 255.483 261.079 255.483C261.079 255.483 260.276 256.257 261.192 257.664C262.065 258.826 263.063 259.861 264.163 260.746C264.361 261.68 264.802 262.527 265.429 263.18C266.344 263.954 272.287 263.827 274.796 264.081C276.053 264.145 277.291 264.45 278.457 264.981C278.457 264.981 307.575 292.878 309.518 292.878C311.462 292.878 338.546 264.144 341.518 259.909C344.49 255.674 346.659 248.243 344.84 244.781C343.021 241.319 340.151 240.546 338.32 241.307" fill="#CCCCCC"/>
<path d="M332.377 248.243C332.377 248.243 319.948 262.483 315.914 267.872C313.114 271.523 310.057 274.916 306.773 278.017L279.146 257.411C278.107 255.674 277.153 253.875 276.287 252.022C275.485 250.094 274.231 249.587 273.203 246.632C272.174 243.678 271.135 241.763 270.344 243.817C269.553 245.872 269.881 246.506 270.344 247.533C270.807 248.56 272.4 251.641 272.4 251.641C272.4 251.641 265.542 248.56 263.135 247.406C260.728 246.252 258.22 245.871 258.107 246.899C257.994 247.926 258.457 247.786 259.598 248.306C260.74 248.826 267.824 253.175 267.824 253.175L267.135 253.569C267.135 253.569 257.768 251.641 256.853 251.514C255.937 251.387 256.163 252.782 256.853 253.175C257.542 253.569 261.079 255.483 261.079 255.483C261.079 255.483 260.276 256.257 261.192 257.664C262.065 258.826 263.063 259.861 264.163 260.746C264.361 261.68 264.802 262.527 265.429 263.18C266.344 263.954 272.287 263.827 274.796 264.081C276.053 264.145 277.291 264.45 278.457 264.981C278.457 264.981 307.575 292.878 309.518 292.878C311.462 292.878 338.546 264.144 341.518 259.909C344.49 255.674 346.659 248.243 344.84 244.781C343.021 241.319 340.151 240.546 338.32 241.307" stroke="#263238" stroke-linecap="round" stroke-linejoin="round"/>
<path d="M261.078 255.406C261.078 255.406 264.739 256.826 265.88 257.207L261.078 255.406Z" fill="white"/>
<path d="M261.078 255.406C261.078 255.406 264.739 256.826 265.88 257.207" stroke="#263238" stroke-linecap="round" stroke-linejoin="round"/>
<path d="M264.164 260.669L266.571 261.049" stroke="#263238" stroke-linecap="round" stroke-linejoin="round"/>
<path d="M332.377 248.243C332.377 248.243 319.948 262.483 315.914 267.872C313.114 271.523 310.057 274.915 306.773 278.016L299.395 272.576L295.214 281.389C302.502 287.641 308.773 292.802 309.53 292.802C311.462 292.802 338.558 264.068 341.529 259.833C344.501 255.597 346.671 248.167 344.851 244.705C343.032 241.243 340.162 240.47 338.332 241.23L336.671 242.41" fill="#263238"/>
<path d="M332.377 248.243C332.377 248.243 319.948 262.483 315.914 267.872C313.114 271.523 310.057 274.915 306.773 278.016L299.395 272.576L295.214 281.389C302.502 287.641 308.773 292.802 309.53 292.802C311.462 292.802 338.558 264.068 341.529 259.833C344.501 255.597 346.671 248.167 344.851 244.705C343.032 241.243 340.162 240.47 338.332 241.23L336.671 242.41" stroke="white" stroke-width="0.75" stroke-linecap="round" stroke-linejoin="round"/>
<path d="M331.157 238.162L318.219 234.472L314.106 234.066L312.298 233.369C312.298 233.369 311.361 233.217 310.039 233.052L309.711 261.266L335.552 239.202C333.292 238.568 331.157 238.162 331.157 238.162Z" fill="white" stroke="#263238" stroke-linecap="round" stroke-linejoin="round"/>
<path d="M327.925 192.994C325.222 192.912 322.597 194.023 320.615 196.088C317.654 199.512 317.462 201.731 316.276 202.948C315.089 204.165 312.818 204.051 311.248 207.817C309.677 211.583 308.479 219.445 308.773 221.994C309.067 224.543 311.033 225.316 312.92 225.646C314.807 225.976 318.253 226.204 318.253 226.204C318.253 226.204 317.745 234.522 317.259 234.396C316.773 234.269 314.106 234.066 314.106 234.066C314.106 234.066 313.609 247.025 313.519 250.234L313.417 253.454L331.439 238.098L327.925 236.45C328.023 233.896 328.402 231.366 329.055 228.918C329.599 226.974 330.291 225.086 331.123 223.275C331.123 223.275 336.773 221.17 339.812 216.415C342.264 212.611 342.185 207.12 340.852 202.834C340.089 200.33 338.733 198.106 336.93 196.402C335.126 194.697 332.943 193.576 330.614 193.159C329.725 193.004 328.824 192.949 327.925 192.994Z" fill="#D9D9D9" stroke="#263238" stroke-linecap="round" stroke-linejoin="round"/>
<path d="M318.05 205.611C317.081 206.82 315.989 207.897 314.796 208.819C313.214 209.923 314.4 212.028 316.377 212.801C318.355 213.575 318.942 212.586 318.942 212.586" stroke="#263238" stroke-linecap="round" stroke-linejoin="round"/>
<path d="M319.235 216.466C319.235 216.466 315.19 215.794 313.314 213.803C313.444 214.417 313.711 214.985 314.091 215.451C314.47 215.917 314.95 216.266 315.484 216.466C316.719 216.777 318 216.777 319.235 216.466Z" stroke="#263238" stroke-width="0.75" stroke-linecap="round" stroke-linejoin="round"/>
<path d="M324.965 202.732C325.654 202.975 326.265 203.439 326.721 204.068C327.177 204.698 327.459 205.463 327.53 206.27" stroke="#263238" stroke-linecap="round" stroke-linejoin="round"/>
<path d="M321.609 200.956C321.118 200.489 320.506 200.215 319.863 200.173C319.221 200.132 318.585 200.327 318.05 200.728" stroke="#263238" stroke-linecap="round" stroke-linejoin="round"/>
<path d="M323.179 207.043C322.761 207.791 322.174 208.222 321.88 208.019C321.586 207.816 321.676 207.017 322.094 206.269C322.513 205.521 323.1 205.09 323.405 205.306C323.71 205.521 323.609 206.295 323.179 207.043Z" fill="#263238"/>
<path d="M317.563 203.95C317.134 204.699 316.557 205.13 316.252 204.914C315.947 204.699 316.049 203.925 316.478 203.177C316.908 202.429 317.484 201.998 317.778 202.2C318.071 202.403 317.981 203.19 317.563 203.95Z" fill="#263238"/>
<path d="M321.01 209.034C321.01 209.034 324.072 209.148 325.055 210.48" stroke="#263238" stroke-width="0.75" stroke-linecap="round" stroke-linejoin="round"/>
<path d="M340.805 202.886C340.042 200.382 338.687 198.158 336.883 196.454C335.08 194.749 332.896 193.628 330.568 193.211C329.695 193.042 328.809 192.97 327.924 192.995C326.914 193.005 325.909 193.15 324.93 193.426C325.31 194.069 325.788 194.631 326.342 195.087C327.246 195.836 329.8 195.531 332.557 196.863C335.314 198.194 336.997 202.62 335.223 205.27C333.449 207.92 331.619 204.649 330.704 207.083C330.296 208.29 329.949 209.522 329.664 210.773C329.632 211.198 329.659 211.626 329.743 212.041C330.06 213.309 330.805 213.943 330.387 214.577C329.969 215.211 329.314 215.845 329.314 216.72C329.321 216.95 329.406 217.167 329.551 217.329C331.223 216.581 334.749 215.287 335.201 217.646C335.788 220.74 333.427 222.3 331.551 222.629C330.076 222.745 328.596 222.521 327.201 221.97C327.201 221.97 327.89 223.771 330.726 224.126C330.93 223.657 331.054 223.403 331.054 223.403C331.054 223.403 336.703 221.298 339.743 216.543C342.217 212.637 342.138 207.172 340.805 202.886Z" fill="#263238" stroke="#263238" stroke-linecap="round" stroke-linejoin="round"/>
</g>
<path d="M329.359 93.6195C329.361 89.1722 328.582 84.7683 327.066 80.6591C325.551 76.5499 323.329 72.8161 320.527 69.6708C317.726 66.5256 314.399 64.0306 310.738 62.3283C307.077 60.626 303.153 59.7499 299.19 59.7499C297.463 59.7506 295.739 59.9204 294.038 60.2571C294.059 47.4774 289.555 35.2118 281.518 26.1586C273.481 17.1053 262.568 12.006 251.18 11.9825C239.792 11.959 228.863 17.0131 220.796 26.033C212.729 35.053 208.185 47.2999 208.164 60.0796C206.782 59.8671 205.389 59.7569 203.994 59.7499C196.125 59.7124 188.553 63.1274 182.896 69.2665C177.238 75.4056 173.942 83.7827 173.71 92.6107C173.479 101.439 176.33 110.019 181.657 116.521C186.983 123.022 194.362 126.931 202.22 127.413H301.044C308.71 126.884 315.907 123.093 321.169 116.813C326.43 110.534 329.36 102.239 329.359 93.6195Z" fill="#E6E6E6" stroke="#263238" stroke-linecap="round" stroke-linejoin="round"/>
<path d="M267.134 92.3502L247.959 74.4707L228.784 92.3502H232.999V149.843H262.93V92.3502H267.134Z" fill="#263238"/>
<path d="M251.304 138.76C250.947 138.766 250.605 138.923 250.347 139.201C250.089 139.479 249.935 139.856 249.915 140.256L249.847 142.285H227.395L226.073 177.6H269.169L270.163 150.832L270.502 142.285L270.637 138.76H251.304Z" fill="#049F85" stroke="#263238" stroke-linecap="round" stroke-linejoin="round"/>
<path d="M269.168 177.6L268.987 144.745H227.564L227.892 177.194L269.168 177.6Z" fill="white" stroke="#263238" stroke-linecap="round" stroke-linejoin="round"/>
<path d="M269.168 177.6L267.292 144.745H225.869L226.197 177.194L269.168 177.6Z" fill="white" stroke="#263238" stroke-linecap="round" stroke-linejoin="round"/>
<path d="M226.073 177.601L220.311 143.731H263.677L269.168 177.601H226.073Z" fill="#049F85" stroke="#263238" stroke-linecap="round" stroke-linejoin="round"/>
<path d="M230.287 132.789V135.046" stroke="#263238" stroke-linecap="round" stroke-linejoin="round"/>
<path d="M230.287 120.234V130.518" stroke="#263238" stroke-linecap="round" stroke-linejoin="round"/>
<path d="M265.519 109.329V117.965" stroke="#263238" stroke-linecap="round" stroke-linejoin="round"/>
<path d="M252.129 179.097V187.732" stroke="#263238" stroke-linecap="round" stroke-linejoin="round"/>
<path d="M268.829 192.247V211.8" stroke="#263238" stroke-linecap="round" stroke-linejoin="round"/>
<path d="M268.829 185.463V189.166" stroke="#263238" stroke-linecap="round" stroke-linejoin="round"/>
<path d="M229.406 184.64V191.627" stroke="#263238" stroke-linecap="round" stroke-linejoin="round"/>
<path d="M233.44 216.936V218.584" stroke="#263238" stroke-linecap="round" stroke-linejoin="round"/>
<path d="M233.44 188.949V214.678" stroke="#263238" stroke-linecap="round" stroke-linejoin="round"/>
<path d="M443.289 134.411C443.297 131.51 442.737 128.643 441.65 126.011C440.564 123.379 438.976 121.047 437 119.178C435.023 117.309 432.705 115.949 430.209 115.194C427.714 114.439 425.101 114.307 422.555 114.807C422.428 107.399 419.719 100.341 415.01 95.148C410.3 89.9546 403.965 87.0387 397.362 87.0254C390.76 87.0122 384.416 89.9026 379.69 95.077C374.964 100.251 372.232 107.298 372.081 114.706C371.269 114.574 370.45 114.506 369.629 114.503C365.021 114.509 360.597 116.528 357.291 120.131C353.986 123.734 352.06 128.64 351.92 133.809C351.781 138.977 353.439 144.005 356.544 147.826C359.649 151.647 363.957 153.962 368.556 154.281H426.645C431.151 153.965 435.38 151.735 438.472 148.043C441.564 144.352 443.286 139.477 443.289 134.411Z" fill="#E6E6E6" stroke="#263238" stroke-linecap="round" stroke-linejoin="round"/>
<path d="M378.544 28.0221C378.544 25.0458 377.49 22.1914 375.615 20.0868C373.74 17.9822 371.196 16.7999 368.544 16.7999C367.972 16.7965 367.401 16.8516 366.838 16.9647C366.838 12.7306 365.339 8.66994 362.671 5.67597C360.004 2.682 356.385 1 352.612 1C348.839 1 345.221 2.682 342.553 5.67597C339.885 8.66994 338.387 12.7306 338.387 16.9647C337.926 16.8986 337.461 16.8647 336.997 16.8633C334.409 16.8835 331.928 18.029 330.077 20.0591C328.226 22.0892 327.148 24.8457 327.071 27.749C326.993 30.6523 327.922 33.4763 329.661 35.6271C331.401 37.778 333.815 39.0883 336.398 39.2824H369.166C371.715 39.1043 374.106 37.8386 375.85 35.7449C377.594 33.6511 378.558 30.888 378.544 28.0221Z" fill="#E6E6E6" stroke="#263238" stroke-linecap="round" stroke-linejoin="round"/>
<defs>
<filter id="filter0_d_601_1179" x="0.9" y="420" width="577.2" height="118.1" filterUnits="userSpaceOnUse" color-interpolation-filters="sRGB">
<feFlood flood-opacity="0" result="BackgroundImageFix"/>
<feColorMatrix in="SourceAlpha" type="matrix" values="0 0 0 0 0 0 0 0 0 0 0 0 0 0 0 0 0 0 127 0" result="hardAlpha"/>
<feOffset dy="21"/>
<feGaussianBlur stdDeviation="7.05"/>
<feComposite in2="hardAlpha" operator="out"/>
<feColorMatrix type="matrix" values="0 0 0 0 0.541667 0 0 0 0 0.541667 0 0 0 0 0.541667 0 0 0 0.25 0"/>
<feBlend mode="normal" in2="BackgroundImageFix" result="effect1_dropShadow_601_1179"/>
<feBlend mode="normal" in="SourceGraphic" in2="effect1_dropShadow_601_1179" result="shape"/>
</filter>
</defs>
</svg>
